<?xml version="1.0" standalone="no"?>
 <!DOCTYPE svg PUBLIC "-//W3C//DTD SVG 1.1//EN" 
 "http://www.w3.org/Graphics/SVG/1.1/DTD/svg11.dtd"> 
<svg
  xmlns:svg="http://www.w3.org/2000/svg"
  xmlns="http://www.w3.org/2000/svg"
  xmlns:xlink="http://www.w3.org/1999/xlink"
  version="1.1"
  width="297.0022mm" height="210.0072mm" viewBox="0.0000 0.0000 297.0022 210.0072">
<title>SVG Image created as sao_coincell_adaptor.svg date 2026/06/17 21:44:35 </title>
  <desc>Image generated by Eeschema-SVG </desc>
<g style="fill:#000000; fill-opacity:1.0000;stroke:#000000; stroke-opacity:1.0000;
stroke-linecap:round; stroke-linejoin:round;"
 transform="translate(0 0) scale(1 1)">
</g>
<g style="fill:#F5F4EF; fill-opacity:1.0000; 
stroke:#F5F4EF; stroke-width:0.0001; stroke-opacity:1; 
stroke-linecap:round; stroke-linejoin:round;">
<rect x="0.000000" y="0.000000" width="297.002200" height="210.007200" rx="0.000000" />
</g>
<g style="fill:none; 
stroke:#840000; stroke-width:0.1524; stroke-opacity:1; 
stroke-linecap:round; stroke-linejoin:round;">
<path d="M177.0022 166.0072
L285.0022 166.0072
L285.0022 198.0072
L177.0022 198.0072
L177.0022 166.0072
" />
<path d="M10.0000 10.0000
L287.0022 10.0000
L287.0022 200.0072
L10.0000 200.0072
L10.0000 10.0000
" />
<path d="M12.0000 12.0000
L285.0022 12.0000
L285.0022 198.0072
L12.0000 198.0072
L12.0000 12.0000
" />
<path d="M60.0000 12.0000
L60.0000 10.0000
" />
<path d="M110.0000 12.0000
L110.0000 10.0000
" />
<path d="M160.0000 12.0000
L160.0000 10.0000
" />
<path d="M210.0000 12.0000
L210.0000 10.0000
" />
<path d="M260.0000 12.0000
L260.0000 10.0000
" />
<text x="35.0000" y="11.6500"
textLength="1.4353" font-size="1.7333" lengthAdjust="spacingAndGlyphs"
text-anchor="start" opacity="0" stroke-opacity="0">1</text>
<g class="stroked-text"><desc>1</desc>
<path d="M36.0906 11.5935
L35.3478 11.5935
" />
<path d="M35.7192 11.5935
L35.7192 10.2935
" />
<path d="M35.7192 10.2935
L35.5954 10.4792
" />
<path d="M35.5954 10.4792
L35.4716 10.6030
" />
<path d="M35.4716 10.6030
L35.3478 10.6649
" />
</g><text x="85.0000" y="11.6500"
textLength="1.4353" font-size="1.7333" lengthAdjust="spacingAndGlyphs"
text-anchor="start" opacity="0" stroke-opacity="0">2</text>
<g class="stroked-text"><desc>2</desc>
<path d="M85.3478 10.4173
L85.4097 10.3554
" />
<path d="M85.4097 10.3554
L85.5335 10.2935
" />
<path d="M85.5335 10.2935
L85.8430 10.2935
" />
<path d="M85.8430 10.2935
L85.9668 10.3554
" />
<path d="M85.9668 10.3554
L86.0287 10.4173
" />
<path d="M86.0287 10.4173
L86.0906 10.5411
" />
<path d="M86.0906 10.5411
L86.0906 10.6649
" />
<path d="M86.0906 10.6649
L86.0287 10.8506
" />
<path d="M86.0287 10.8506
L85.2859 11.5935
" />
<path d="M85.2859 11.5935
L86.0906 11.5935
" />
</g><text x="135.0000" y="11.6500"
textLength="1.4353" font-size="1.7333" lengthAdjust="spacingAndGlyphs"
text-anchor="start" opacity="0" stroke-opacity="0">3</text>
<g class="stroked-text"><desc>3</desc>
<path d="M135.2859 10.2935
L136.0906 10.2935
" />
<path d="M136.0906 10.2935
L135.6573 10.7887
" />
<path d="M135.6573 10.7887
L135.8430 10.7887
" />
<path d="M135.8430 10.7887
L135.9668 10.8506
" />
<path d="M135.9668 10.8506
L136.0287 10.9125
" />
<path d="M136.0287 10.9125
L136.0906 11.0363
" />
<path d="M136.0906 11.0363
L136.0906 11.3458
" />
<path d="M136.0906 11.3458
L136.0287 11.4696
" />
<path d="M136.0287 11.4696
L135.9668 11.5316
" />
<path d="M135.9668 11.5316
L135.8430 11.5935
" />
<path d="M135.8430 11.5935
L135.4716 11.5935
" />
<path d="M135.4716 11.5935
L135.3478 11.5316
" />
<path d="M135.3478 11.5316
L135.2859 11.4696
" />
</g><text x="185.0000" y="11.6500"
textLength="1.4353" font-size="1.7333" lengthAdjust="spacingAndGlyphs"
text-anchor="start" opacity="0" stroke-opacity="0">4</text>
<g class="stroked-text"><desc>4</desc>
<path d="M185.9668 10.7268
L185.9668 11.5935
" />
<path d="M185.6573 10.2316
L185.3478 11.1601
" />
<path d="M185.3478 11.1601
L186.1525 11.1601
" />
</g><text x="235.0000" y="11.6500"
textLength="1.4353" font-size="1.7333" lengthAdjust="spacingAndGlyphs"
text-anchor="start" opacity="0" stroke-opacity="0">5</text>
<g class="stroked-text"><desc>5</desc>
<path d="M236.0287 10.2935
L235.4097 10.2935
" />
<path d="M235.4097 10.2935
L235.3478 10.9125
" />
<path d="M235.3478 10.9125
L235.4097 10.8506
" />
<path d="M235.4097 10.8506
L235.5335 10.7887
" />
<path d="M235.5335 10.7887
L235.8430 10.7887
" />
<path d="M235.8430 10.7887
L235.9668 10.8506
" />
<path d="M235.9668 10.8506
L236.0287 10.9125
" />
<path d="M236.0287 10.9125
L236.0906 11.0363
" />
<path d="M236.0906 11.0363
L236.0906 11.3458
" />
<path d="M236.0906 11.3458
L236.0287 11.4696
" />
<path d="M236.0287 11.4696
L235.9668 11.5316
" />
<path d="M235.9668 11.5316
L235.8430 11.5935
" />
<path d="M235.8430 11.5935
L235.5335 11.5935
" />
<path d="M235.5335 11.5935
L235.4097 11.5316
" />
<path d="M235.4097 11.5316
L235.3478 11.4696
" />
</g><text x="285.0000" y="11.6500"
textLength="1.4353" font-size="1.7333" lengthAdjust="spacingAndGlyphs"
text-anchor="start" opacity="0" stroke-opacity="0">6</text>
<g class="stroked-text"><desc>6</desc>
<path d="M285.9668 10.2935
L285.7192 10.2935
" />
<path d="M285.7192 10.2935
L285.5954 10.3554
" />
<path d="M285.5954 10.3554
L285.5335 10.4173
" />
<path d="M285.5335 10.4173
L285.4097 10.6030
" />
<path d="M285.4097 10.6030
L285.3478 10.8506
" />
<path d="M285.3478 10.8506
L285.3478 11.3458
" />
<path d="M285.3478 11.3458
L285.4097 11.4696
" />
<path d="M285.4097 11.4696
L285.4716 11.5316
" />
<path d="M285.4716 11.5316
L285.5954 11.5935
" />
<path d="M285.5954 11.5935
L285.8430 11.5935
" />
<path d="M285.8430 11.5935
L285.9668 11.5316
" />
<path d="M285.9668 11.5316
L286.0287 11.4696
" />
<path d="M286.0287 11.4696
L286.0906 11.3458
" />
<path d="M286.0906 11.3458
L286.0906 11.0363
" />
<path d="M286.0906 11.0363
L286.0287 10.9125
" />
<path d="M286.0287 10.9125
L285.9668 10.8506
" />
<path d="M285.9668 10.8506
L285.8430 10.7887
" />
<path d="M285.8430 10.7887
L285.5954 10.7887
" />
<path d="M285.5954 10.7887
L285.4716 10.8506
" />
<path d="M285.4716 10.8506
L285.4097 10.9125
" />
<path d="M285.4097 10.9125
L285.3478 11.0363
" />
</g><path d="M60.0000 198.0072
L60.0000 200.0072
" />
<path d="M110.0000 198.0072
L110.0000 200.0072
" />
<path d="M160.0000 198.0072
L160.0000 200.0072
" />
<path d="M210.0000 198.0072
L210.0000 200.0072
" />
<path d="M260.0000 198.0072
L260.0000 200.0072
" />
<text x="35.0000" y="199.6572"
textLength="1.4353" font-size="1.7333" lengthAdjust="spacingAndGlyphs"
text-anchor="start" opacity="0" stroke-opacity="0">1</text>
<g class="stroked-text"><desc>1</desc>
<path d="M36.0906 199.6007
L35.3478 199.6007
" />
<path d="M35.7192 199.6007
L35.7192 198.3007
" />
<path d="M35.7192 198.3007
L35.5954 198.4864
" />
<path d="M35.5954 198.4864
L35.4716 198.6102
" />
<path d="M35.4716 198.6102
L35.3478 198.6721
" />
</g><text x="85.0000" y="199.6572"
textLength="1.4353" font-size="1.7333" lengthAdjust="spacingAndGlyphs"
text-anchor="start" opacity="0" stroke-opacity="0">2</text>
<g class="stroked-text"><desc>2</desc>
<path d="M85.3478 198.4245
L85.4097 198.3626
" />
<path d="M85.4097 198.3626
L85.5335 198.3007
" />
<path d="M85.5335 198.3007
L85.8430 198.3007
" />
<path d="M85.8430 198.3007
L85.9668 198.3626
" />
<path d="M85.9668 198.3626
L86.0287 198.4245
" />
<path d="M86.0287 198.4245
L86.0906 198.5483
" />
<path d="M86.0906 198.5483
L86.0906 198.6721
" />
<path d="M86.0906 198.6721
L86.0287 198.8578
" />
<path d="M86.0287 198.8578
L85.2859 199.6007
" />
<path d="M85.2859 199.6007
L86.0906 199.6007
" />
</g><text x="135.0000" y="199.6572"
textLength="1.4353" font-size="1.7333" lengthAdjust="spacingAndGlyphs"
text-anchor="start" opacity="0" stroke-opacity="0">3</text>
<g class="stroked-text"><desc>3</desc>
<path d="M135.2859 198.3007
L136.0906 198.3007
" />
<path d="M136.0906 198.3007
L135.6573 198.7959
" />
<path d="M135.6573 198.7959
L135.8430 198.7959
" />
<path d="M135.8430 198.7959
L135.9668 198.8578
" />
<path d="M135.9668 198.8578
L136.0287 198.9197
" />
<path d="M136.0287 198.9197
L136.0906 199.0435
" />
<path d="M136.0906 199.0435
L136.0906 199.3530
" />
<path d="M136.0906 199.3530
L136.0287 199.4768
" />
<path d="M136.0287 199.4768
L135.9668 199.5388
" />
<path d="M135.9668 199.5388
L135.8430 199.6007
" />
<path d="M135.8430 199.6007
L135.4716 199.6007
" />
<path d="M135.4716 199.6007
L135.3478 199.5388
" />
<path d="M135.3478 199.5388
L135.2859 199.4768
" />
</g><text x="185.0000" y="199.6572"
textLength="1.4353" font-size="1.7333" lengthAdjust="spacingAndGlyphs"
text-anchor="start" opacity="0" stroke-opacity="0">4</text>
<g class="stroked-text"><desc>4</desc>
<path d="M185.9668 198.7340
L185.9668 199.6007
" />
<path d="M185.6573 198.2388
L185.3478 199.1673
" />
<path d="M185.3478 199.1673
L186.1525 199.1673
" />
</g><text x="235.0000" y="199.6572"
textLength="1.4353" font-size="1.7333" lengthAdjust="spacingAndGlyphs"
text-anchor="start" opacity="0" stroke-opacity="0">5</text>
<g class="stroked-text"><desc>5</desc>
<path d="M236.0287 198.3007
L235.4097 198.3007
" />
<path d="M235.4097 198.3007
L235.3478 198.9197
" />
<path d="M235.3478 198.9197
L235.4097 198.8578
" />
<path d="M235.4097 198.8578
L235.5335 198.7959
" />
<path d="M235.5335 198.7959
L235.8430 198.7959
" />
<path d="M235.8430 198.7959
L235.9668 198.8578
" />
<path d="M235.9668 198.8578
L236.0287 198.9197
" />
<path d="M236.0287 198.9197
L236.0906 199.0435
" />
<path d="M236.0906 199.0435
L236.0906 199.3530
" />
<path d="M236.0906 199.3530
L236.0287 199.4768
" />
<path d="M236.0287 199.4768
L235.9668 199.5388
" />
<path d="M235.9668 199.5388
L235.8430 199.6007
" />
<path d="M235.8430 199.6007
L235.5335 199.6007
" />
<path d="M235.5335 199.6007
L235.4097 199.5388
" />
<path d="M235.4097 199.5388
L235.3478 199.4768
" />
</g><text x="285.0000" y="199.6572"
textLength="1.4353" font-size="1.7333" lengthAdjust="spacingAndGlyphs"
text-anchor="start" opacity="0" stroke-opacity="0">6</text>
<g class="stroked-text"><desc>6</desc>
<path d="M285.9668 198.3007
L285.7192 198.3007
" />
<path d="M285.7192 198.3007
L285.5954 198.3626
" />
<path d="M285.5954 198.3626
L285.5335 198.4245
" />
<path d="M285.5335 198.4245
L285.4097 198.6102
" />
<path d="M285.4097 198.6102
L285.3478 198.8578
" />
<path d="M285.3478 198.8578
L285.3478 199.3530
" />
<path d="M285.3478 199.3530
L285.4097 199.4768
" />
<path d="M285.4097 199.4768
L285.4716 199.5388
" />
<path d="M285.4716 199.5388
L285.5954 199.6007
" />
<path d="M285.5954 199.6007
L285.8430 199.6007
" />
<path d="M285.8430 199.6007
L285.9668 199.5388
" />
<path d="M285.9668 199.5388
L286.0287 199.4768
" />
<path d="M286.0287 199.4768
L286.0906 199.3530
" />
<path d="M286.0906 199.3530
L286.0906 199.0435
" />
<path d="M286.0906 199.0435
L286.0287 198.9197
" />
<path d="M286.0287 198.9197
L285.9668 198.8578
" />
<path d="M285.9668 198.8578
L285.8430 198.7959
" />
<path d="M285.8430 198.7959
L285.5954 198.7959
" />
<path d="M285.5954 198.7959
L285.4716 198.8578
" />
<path d="M285.4716 198.8578
L285.4097 198.9197
" />
<path d="M285.4097 198.9197
L285.3478 199.0435
" />
</g><path d="M10.0000 60.0000
L12.0000 60.0000
" />
<path d="M10.0000 110.0000
L12.0000 110.0000
" />
<path d="M10.0000 160.0000
L12.0000 160.0000
" />
<text x="11.0000" y="35.6500"
textLength="1.3115" font-size="1.7333" lengthAdjust="spacingAndGlyphs"
text-anchor="middle" opacity="0" stroke-opacity="0">A</text>
<g class="stroked-text"><desc>A</desc>
<path d="M10.6905 35.2220
L11.3095 35.2220
" />
<path d="M10.5667 35.5935
L11.0000 34.2935
" />
<path d="M11.0000 34.2935
L11.4333 35.5935
" />
</g><text x="11.0000" y="85.6500"
textLength="1.4972" font-size="1.7333" lengthAdjust="spacingAndGlyphs"
text-anchor="middle" opacity="0" stroke-opacity="0">B</text>
<g class="stroked-text"><desc>B</desc>
<path d="M11.0928 84.9125
L11.2785 84.9744
" />
<path d="M11.2785 84.9744
L11.3404 85.0363
" />
<path d="M11.3404 85.0363
L11.4023 85.1601
" />
<path d="M11.4023 85.1601
L11.4023 85.3458
" />
<path d="M11.4023 85.3458
L11.3404 85.4696
" />
<path d="M11.3404 85.4696
L11.2785 85.5316
" />
<path d="M11.2785 85.5316
L11.1547 85.5935
" />
<path d="M11.1547 85.5935
L10.6595 85.5935
" />
<path d="M10.6595 85.5935
L10.6595 84.2935
" />
<path d="M10.6595 84.2935
L11.0928 84.2935
" />
<path d="M11.0928 84.2935
L11.2166 84.3554
" />
<path d="M11.2166 84.3554
L11.2785 84.4173
" />
<path d="M11.2785 84.4173
L11.3404 84.5411
" />
<path d="M11.3404 84.5411
L11.3404 84.6649
" />
<path d="M11.3404 84.6649
L11.2785 84.7887
" />
<path d="M11.2785 84.7887
L11.2166 84.8506
" />
<path d="M11.2166 84.8506
L11.0928 84.9125
" />
<path d="M11.0928 84.9125
L10.6595 84.9125
" />
</g><text x="11.0000" y="135.6500"
textLength="1.4972" font-size="1.7333" lengthAdjust="spacingAndGlyphs"
text-anchor="middle" opacity="0" stroke-opacity="0">C</text>
<g class="stroked-text"><desc>C</desc>
<path d="M11.4023 135.4696
L11.3404 135.5316
" />
<path d="M11.3404 135.5316
L11.1547 135.5935
" />
<path d="M11.1547 135.5935
L11.0309 135.5935
" />
<path d="M11.0309 135.5935
L10.8452 135.5316
" />
<path d="M10.8452 135.5316
L10.7214 135.4077
" />
<path d="M10.7214 135.4077
L10.6595 135.2839
" />
<path d="M10.6595 135.2839
L10.5976 135.0363
" />
<path d="M10.5976 135.0363
L10.5976 134.8506
" />
<path d="M10.5976 134.8506
L10.6595 134.6030
" />
<path d="M10.6595 134.6030
L10.7214 134.4792
" />
<path d="M10.7214 134.4792
L10.8452 134.3554
" />
<path d="M10.8452 134.3554
L11.0309 134.2935
" />
<path d="M11.0309 134.2935
L11.1547 134.2935
" />
<path d="M11.1547 134.2935
L11.3404 134.3554
" />
<path d="M11.3404 134.3554
L11.4023 134.4173
" />
</g><text x="11.0000" y="185.6500"
textLength="1.4972" font-size="1.7333" lengthAdjust="spacingAndGlyphs"
text-anchor="middle" opacity="0" stroke-opacity="0">D</text>
<g class="stroked-text"><desc>D</desc>
<path d="M10.6595 185.5935
L10.6595 184.2935
" />
<path d="M10.6595 184.2935
L10.9690 184.2935
" />
<path d="M10.9690 184.2935
L11.1547 184.3554
" />
<path d="M11.1547 184.3554
L11.2785 184.4792
" />
<path d="M11.2785 184.4792
L11.3404 184.6030
" />
<path d="M11.3404 184.6030
L11.4023 184.8506
" />
<path d="M11.4023 184.8506
L11.4023 185.0363
" />
<path d="M11.4023 185.0363
L11.3404 185.2839
" />
<path d="M11.3404 185.2839
L11.2785 185.4077
" />
<path d="M11.2785 185.4077
L11.1547 185.5316
" />
<path d="M11.1547 185.5316
L10.9690 185.5935
" />
<path d="M10.9690 185.5935
L10.6595 185.5935
" />
</g><path d="M287.0022 60.0000
L285.0022 60.0000
" />
<path d="M287.0022 110.0000
L285.0022 110.0000
" />
<path d="M287.0022 160.0000
L285.0022 160.0000
" />
<text x="286.0022" y="35.6500"
textLength="1.3115" font-size="1.7333" lengthAdjust="spacingAndGlyphs"
text-anchor="middle" opacity="0" stroke-opacity="0">A</text>
<g class="stroked-text"><desc>A</desc>
<path d="M285.6927 35.2220
L286.3117 35.2220
" />
<path d="M285.5689 35.5935
L286.0022 34.2935
" />
<path d="M286.0022 34.2935
L286.4355 35.5935
" />
</g><text x="286.0022" y="85.6500"
textLength="1.4972" font-size="1.7333" lengthAdjust="spacingAndGlyphs"
text-anchor="middle" opacity="0" stroke-opacity="0">B</text>
<g class="stroked-text"><desc>B</desc>
<path d="M286.0950 84.9125
L286.2807 84.9744
" />
<path d="M286.2807 84.9744
L286.3426 85.0363
" />
<path d="M286.3426 85.0363
L286.4045 85.1601
" />
<path d="M286.4045 85.1601
L286.4045 85.3458
" />
<path d="M286.4045 85.3458
L286.3426 85.4696
" />
<path d="M286.3426 85.4696
L286.2807 85.5316
" />
<path d="M286.2807 85.5316
L286.1569 85.5935
" />
<path d="M286.1569 85.5935
L285.6617 85.5935
" />
<path d="M285.6617 85.5935
L285.6617 84.2935
" />
<path d="M285.6617 84.2935
L286.0950 84.2935
" />
<path d="M286.0950 84.2935
L286.2188 84.3554
" />
<path d="M286.2188 84.3554
L286.2807 84.4173
" />
<path d="M286.2807 84.4173
L286.3426 84.5411
" />
<path d="M286.3426 84.5411
L286.3426 84.6649
" />
<path d="M286.3426 84.6649
L286.2807 84.7887
" />
<path d="M286.2807 84.7887
L286.2188 84.8506
" />
<path d="M286.2188 84.8506
L286.0950 84.9125
" />
<path d="M286.0950 84.9125
L285.6617 84.9125
" />
</g><text x="286.0022" y="135.6500"
textLength="1.4972" font-size="1.7333" lengthAdjust="spacingAndGlyphs"
text-anchor="middle" opacity="0" stroke-opacity="0">C</text>
<g class="stroked-text"><desc>C</desc>
<path d="M286.4045 135.4696
L286.3426 135.5316
" />
<path d="M286.3426 135.5316
L286.1569 135.5935
" />
<path d="M286.1569 135.5935
L286.0331 135.5935
" />
<path d="M286.0331 135.5935
L285.8474 135.5316
" />
<path d="M285.8474 135.5316
L285.7236 135.4077
" />
<path d="M285.7236 135.4077
L285.6617 135.2839
" />
<path d="M285.6617 135.2839
L285.5998 135.0363
" />
<path d="M285.5998 135.0363
L285.5998 134.8506
" />
<path d="M285.5998 134.8506
L285.6617 134.6030
" />
<path d="M285.6617 134.6030
L285.7236 134.4792
" />
<path d="M285.7236 134.4792
L285.8474 134.3554
" />
<path d="M285.8474 134.3554
L286.0331 134.2935
" />
<path d="M286.0331 134.2935
L286.1569 134.2935
" />
<path d="M286.1569 134.2935
L286.3426 134.3554
" />
<path d="M286.3426 134.3554
L286.4045 134.4173
" />
</g><text x="286.0022" y="185.6500"
textLength="1.4972" font-size="1.7333" lengthAdjust="spacingAndGlyphs"
text-anchor="middle" opacity="0" stroke-opacity="0">D</text>
<g class="stroked-text"><desc>D</desc>
<path d="M285.6617 185.5935
L285.6617 184.2935
" />
<path d="M285.6617 184.2935
L285.9712 184.2935
" />
<path d="M285.9712 184.2935
L286.1569 184.3554
" />
<path d="M286.1569 184.3554
L286.2807 184.4792
" />
<path d="M286.2807 184.4792
L286.3426 184.6030
" />
<path d="M286.3426 184.6030
L286.4045 184.8506
" />
<path d="M286.4045 184.8506
L286.4045 185.0363
" />
<path d="M286.4045 185.0363
L286.3426 185.2839
" />
<path d="M286.3426 185.2839
L286.2807 185.4077
" />
<path d="M286.2807 185.4077
L286.1569 185.5316
" />
<path d="M286.1569 185.5316
L285.9712 185.5935
" />
<path d="M285.9712 185.5935
L285.6617 185.5935
" />
</g><text x="200.0022" y="193.8572"
textLength="7.0143" font-size="2.0000" lengthAdjust="spacingAndGlyphs"
text-anchor="start" opacity="0" stroke-opacity="0">Date: </text>
<g class="stroked-text"><desc>Date: </desc>
<path d="M200.4595 193.7931
L200.4595 192.2931
" />
<path d="M200.4595 192.2931
L200.8166 192.2931
" />
<path d="M200.8166 192.2931
L201.0309 192.3645
" />
<path d="M201.0309 192.3645
L201.1738 192.5074
" />
<path d="M201.1738 192.5074
L201.2452 192.6502
" />
<path d="M201.2452 192.6502
L201.3166 192.9359
" />
<path d="M201.3166 192.9359
L201.3166 193.1502
" />
<path d="M201.3166 193.1502
L201.2452 193.4359
" />
<path d="M201.2452 193.4359
L201.1738 193.5788
" />
<path d="M201.1738 193.5788
L201.0309 193.7217
" />
<path d="M201.0309 193.7217
L200.8166 193.7931
" />
<path d="M200.8166 193.7931
L200.4595 193.7931
" />
<path d="M202.6024 193.7931
L202.6024 193.0074
" />
<path d="M202.6024 193.0074
L202.5309 192.8645
" />
<path d="M202.5309 192.8645
L202.3881 192.7931
" />
<path d="M202.3881 192.7931
L202.1024 192.7931
" />
<path d="M202.1024 192.7931
L201.9595 192.8645
" />
<path d="M202.6024 193.7217
L202.4595 193.7931
" />
<path d="M202.4595 193.7931
L202.1024 193.7931
" />
<path d="M202.1024 193.7931
L201.9595 193.7217
" />
<path d="M201.9595 193.7217
L201.8881 193.5788
" />
<path d="M201.8881 193.5788
L201.8881 193.4359
" />
<path d="M201.8881 193.4359
L201.9595 193.2931
" />
<path d="M201.9595 193.2931
L202.1024 193.2217
" />
<path d="M202.1024 193.2217
L202.4595 193.2217
" />
<path d="M202.4595 193.2217
L202.6024 193.1502
" />
<path d="M203.1023 192.7931
L203.6737 192.7931
" />
<path d="M203.3166 192.2931
L203.3166 193.5788
" />
<path d="M203.3166 193.5788
L203.3880 193.7217
" />
<path d="M203.3880 193.7217
L203.5309 193.7931
" />
<path d="M203.5309 193.7931
L203.6737 193.7931
" />
<path d="M204.7451 193.7217
L204.6023 193.7931
" />
<path d="M204.6023 193.7931
L204.3166 193.7931
" />
<path d="M204.3166 193.7931
L204.1737 193.7217
" />
<path d="M204.1737 193.7217
L204.1023 193.5788
" />
<path d="M204.1023 193.5788
L204.1023 193.0074
" />
<path d="M204.1023 193.0074
L204.1737 192.8645
" />
<path d="M204.1737 192.8645
L204.3166 192.7931
" />
<path d="M204.3166 192.7931
L204.6023 192.7931
" />
<path d="M204.6023 192.7931
L204.7451 192.8645
" />
<path d="M204.7451 192.8645
L204.8166 193.0074
" />
<path d="M204.8166 193.0074
L204.8166 193.1502
" />
<path d="M204.8166 193.1502
L204.1023 193.2931
" />
<path d="M205.4594 193.6502
L205.5308 193.7217
" />
<path d="M205.5308 193.7217
L205.4594 193.7931
" />
<path d="M205.4594 193.7931
L205.3880 193.7217
" />
<path d="M205.3880 193.7217
L205.4594 193.6502
" />
<path d="M205.4594 193.6502
L205.4594 193.7931
" />
<path d="M205.4594 192.8645
L205.5308 192.9359
" />
<path d="M205.5308 192.9359
L205.4594 193.0074
" />
<path d="M205.4594 193.0074
L205.3880 192.9359
" />
<path d="M205.3880 192.9359
L205.4594 192.8645
" />
<path d="M205.4594 192.8645
L205.4594 193.0074
" />
</g><path d="M177.0022 194.5072
L285.0022 194.5072
" />
<text x="178.0022" y="196.6572"
textLength="20.8716" font-size="2.0000" lengthAdjust="spacingAndGlyphs"
text-anchor="start" opacity="0" stroke-opacity="0">KiCad E.D.A. 9.0.9</text>
<g class="stroked-text"><desc>KiCad E.D.A. 9.0.9</desc>
<path d="M178.4595 196.5931
L178.4595 195.0931
" />
<path d="M179.3166 196.5931
L178.6738 195.7359
" />
<path d="M179.3166 195.0931
L178.4595 195.9502
" />
<path d="M179.9595 196.5931
L179.9595 195.5931
" />
<path d="M179.9595 195.0931
L179.8881 195.1645
" />
<path d="M179.8881 195.1645
L179.9595 195.2359
" />
<path d="M179.9595 195.2359
L180.0309 195.1645
" />
<path d="M180.0309 195.1645
L179.9595 195.0931
" />
<path d="M179.9595 195.0931
L179.9595 195.2359
" />
<path d="M181.5309 196.4502
L181.4595 196.5217
" />
<path d="M181.4595 196.5217
L181.2452 196.5931
" />
<path d="M181.2452 196.5931
L181.1024 196.5931
" />
<path d="M181.1024 196.5931
L180.8881 196.5217
" />
<path d="M180.8881 196.5217
L180.7452 196.3788
" />
<path d="M180.7452 196.3788
L180.6738 196.2359
" />
<path d="M180.6738 196.2359
L180.6024 195.9502
" />
<path d="M180.6024 195.9502
L180.6024 195.7359
" />
<path d="M180.6024 195.7359
L180.6738 195.4502
" />
<path d="M180.6738 195.4502
L180.7452 195.3074
" />
<path d="M180.7452 195.3074
L180.8881 195.1645
" />
<path d="M180.8881 195.1645
L181.1024 195.0931
" />
<path d="M181.1024 195.0931
L181.2452 195.0931
" />
<path d="M181.2452 195.0931
L181.4595 195.1645
" />
<path d="M181.4595 195.1645
L181.5309 195.2359
" />
<path d="M182.8167 196.5931
L182.8167 195.8074
" />
<path d="M182.8167 195.8074
L182.7452 195.6645
" />
<path d="M182.7452 195.6645
L182.6024 195.5931
" />
<path d="M182.6024 195.5931
L182.3167 195.5931
" />
<path d="M182.3167 195.5931
L182.1738 195.6645
" />
<path d="M182.8167 196.5217
L182.6738 196.5931
" />
<path d="M182.6738 196.5931
L182.3167 196.5931
" />
<path d="M182.3167 196.5931
L182.1738 196.5217
" />
<path d="M182.1738 196.5217
L182.1024 196.3788
" />
<path d="M182.1024 196.3788
L182.1024 196.2359
" />
<path d="M182.1024 196.2359
L182.1738 196.0931
" />
<path d="M182.1738 196.0931
L182.3167 196.0217
" />
<path d="M182.3167 196.0217
L182.6738 196.0217
" />
<path d="M182.6738 196.0217
L182.8167 195.9502
" />
<path d="M184.1738 196.5931
L184.1738 195.0931
" />
<path d="M184.1738 196.5217
L184.0309 196.5931
" />
<path d="M184.0309 196.5931
L183.7452 196.5931
" />
<path d="M183.7452 196.5931
L183.6023 196.5217
" />
<path d="M183.6023 196.5217
L183.5309 196.4502
" />
<path d="M183.5309 196.4502
L183.4595 196.3074
" />
<path d="M183.4595 196.3074
L183.4595 195.8788
" />
<path d="M183.4595 195.8788
L183.5309 195.7359
" />
<path d="M183.5309 195.7359
L183.6023 195.6645
" />
<path d="M183.6023 195.6645
L183.7452 195.5931
" />
<path d="M183.7452 195.5931
L184.0309 195.5931
" />
<path d="M184.0309 195.5931
L184.1738 195.6645
" />
<path d="M186.0309 195.8074
L186.5309 195.8074
" />
<path d="M186.7452 196.5931
L186.0309 196.5931
" />
<path d="M186.0309 196.5931
L186.0309 195.0931
" />
<path d="M186.0309 195.0931
L186.7452 195.0931
" />
<path d="M187.3880 196.4502
L187.4594 196.5217
" />
<path d="M187.4594 196.5217
L187.3880 196.5931
" />
<path d="M187.3880 196.5931
L187.3166 196.5217
" />
<path d="M187.3166 196.5217
L187.3880 196.4502
" />
<path d="M187.3880 196.4502
L187.3880 196.5931
" />
<path d="M188.1023 196.5931
L188.1023 195.0931
" />
<path d="M188.1023 195.0931
L188.4594 195.0931
" />
<path d="M188.4594 195.0931
L188.6737 195.1645
" />
<path d="M188.6737 195.1645
L188.8166 195.3074
" />
<path d="M188.8166 195.3074
L188.8880 195.4502
" />
<path d="M188.8880 195.4502
L188.9594 195.7359
" />
<path d="M188.9594 195.7359
L188.9594 195.9502
" />
<path d="M188.9594 195.9502
L188.8880 196.2359
" />
<path d="M188.8880 196.2359
L188.8166 196.3788
" />
<path d="M188.8166 196.3788
L188.6737 196.5217
" />
<path d="M188.6737 196.5217
L188.4594 196.5931
" />
<path d="M188.4594 196.5931
L188.1023 196.5931
" />
<path d="M189.6023 196.4502
L189.6737 196.5217
" />
<path d="M189.6737 196.5217
L189.6023 196.5931
" />
<path d="M189.6023 196.5931
L189.5309 196.5217
" />
<path d="M189.5309 196.5217
L189.6023 196.4502
" />
<path d="M189.6023 196.4502
L189.6023 196.5931
" />
<path d="M190.2452 196.1645
L190.9595 196.1645
" />
<path d="M190.1023 196.5931
L190.6023 195.0931
" />
<path d="M190.6023 195.0931
L191.1023 196.5931
" />
<path d="M191.6023 196.4502
L191.6737 196.5217
" />
<path d="M191.6737 196.5217
L191.6023 196.5931
" />
<path d="M191.6023 196.5931
L191.5309 196.5217
" />
<path d="M191.5309 196.5217
L191.6023 196.4502
" />
<path d="M191.6023 196.4502
L191.6023 196.5931
" />
<path d="M193.5309 196.5931
L193.8166 196.5931
" />
<path d="M193.8166 196.5931
L193.9595 196.5217
" />
<path d="M193.9595 196.5217
L194.0309 196.4502
" />
<path d="M194.0309 196.4502
L194.1738 196.2359
" />
<path d="M194.1738 196.2359
L194.2452 195.9502
" />
<path d="M194.2452 195.9502
L194.2452 195.3788
" />
<path d="M194.2452 195.3788
L194.1738 195.2359
" />
<path d="M194.1738 195.2359
L194.1024 195.1645
" />
<path d="M194.1024 195.1645
L193.9595 195.0931
" />
<path d="M193.9595 195.0931
L193.6738 195.0931
" />
<path d="M193.6738 195.0931
L193.5309 195.1645
" />
<path d="M193.5309 195.1645
L193.4595 195.2359
" />
<path d="M193.4595 195.2359
L193.3881 195.3788
" />
<path d="M193.3881 195.3788
L193.3881 195.7359
" />
<path d="M193.3881 195.7359
L193.4595 195.8788
" />
<path d="M193.4595 195.8788
L193.5309 195.9502
" />
<path d="M193.5309 195.9502
L193.6738 196.0217
" />
<path d="M193.6738 196.0217
L193.9595 196.0217
" />
<path d="M193.9595 196.0217
L194.1024 195.9502
" />
<path d="M194.1024 195.9502
L194.1738 195.8788
" />
<path d="M194.1738 195.8788
L194.2452 195.7359
" />
<path d="M194.8881 196.4502
L194.9595 196.5217
" />
<path d="M194.9595 196.5217
L194.8881 196.5931
" />
<path d="M194.8881 196.5931
L194.8167 196.5217
" />
<path d="M194.8167 196.5217
L194.8881 196.4502
" />
<path d="M194.8881 196.4502
L194.8881 196.5931
" />
<path d="M195.8881 195.0931
L196.0310 195.0931
" />
<path d="M196.0310 195.0931
L196.1738 195.1645
" />
<path d="M196.1738 195.1645
L196.2453 195.2359
" />
<path d="M196.2453 195.2359
L196.3167 195.3788
" />
<path d="M196.3167 195.3788
L196.3881 195.6645
" />
<path d="M196.3881 195.6645
L196.3881 196.0217
" />
<path d="M196.3881 196.0217
L196.3167 196.3074
" />
<path d="M196.3167 196.3074
L196.2453 196.4502
" />
<path d="M196.2453 196.4502
L196.1738 196.5217
" />
<path d="M196.1738 196.5217
L196.0310 196.5931
" />
<path d="M196.0310 196.5931
L195.8881 196.5931
" />
<path d="M195.8881 196.5931
L195.7453 196.5217
" />
<path d="M195.7453 196.5217
L195.6738 196.4502
" />
<path d="M195.6738 196.4502
L195.6024 196.3074
" />
<path d="M195.6024 196.3074
L195.5310 196.0217
" />
<path d="M195.5310 196.0217
L195.5310 195.6645
" />
<path d="M195.5310 195.6645
L195.6024 195.3788
" />
<path d="M195.6024 195.3788
L195.6738 195.2359
" />
<path d="M195.6738 195.2359
L195.7453 195.1645
" />
<path d="M195.7453 195.1645
L195.8881 195.0931
" />
<path d="M197.0310 196.4502
L197.1024 196.5217
" />
<path d="M197.1024 196.5217
L197.0310 196.5931
" />
<path d="M197.0310 196.5931
L196.9596 196.5217
" />
<path d="M196.9596 196.5217
L197.0310 196.4502
" />
<path d="M197.0310 196.4502
L197.0310 196.5931
" />
<path d="M197.8167 196.5931
L198.1024 196.5931
" />
<path d="M198.1024 196.5931
L198.2453 196.5217
" />
<path d="M198.2453 196.5217
L198.3167 196.4502
" />
<path d="M198.3167 196.4502
L198.4596 196.2359
" />
<path d="M198.4596 196.2359
L198.5310 195.9502
" />
<path d="M198.5310 195.9502
L198.5310 195.3788
" />
<path d="M198.5310 195.3788
L198.4596 195.2359
" />
<path d="M198.4596 195.2359
L198.3882 195.1645
" />
<path d="M198.3882 195.1645
L198.2453 195.0931
" />
<path d="M198.2453 195.0931
L197.9596 195.0931
" />
<path d="M197.9596 195.0931
L197.8167 195.1645
" />
<path d="M197.8167 195.1645
L197.7453 195.2359
" />
<path d="M197.7453 195.2359
L197.6739 195.3788
" />
<path d="M197.6739 195.3788
L197.6739 195.7359
" />
<path d="M197.6739 195.7359
L197.7453 195.8788
" />
<path d="M197.7453 195.8788
L197.8167 195.9502
" />
<path d="M197.8167 195.9502
L197.9596 196.0217
" />
<path d="M197.9596 196.0217
L198.2453 196.0217
" />
<path d="M198.2453 196.0217
L198.3882 195.9502
" />
<path d="M198.3882 195.9502
L198.4596 195.8788
" />
<path d="M198.4596 195.8788
L198.5310 195.7359
" />
</g><path d="M177.0022 191.5072
L285.0022 191.5072
" />
</g>
<g style="fill:none; 
stroke:#840000; stroke-width:0.3000; stroke-opacity:1; 
stroke-linecap:round; stroke-linejoin:round;">
<text x="263.0022" y="193.8572"
textLength="6.3858" font-size="2.0000" lengthAdjust="spacingAndGlyphs"
text-anchor="start" opacity="0" stroke-opacity="0">Rev: </text>
<g class="stroked-text"><desc>Rev: </desc>
<path d="M264.4137 193.7855
L263.9137 193.0712
" />
<path d="M263.5566 193.7855
L263.5566 192.2855
" />
<path d="M263.5566 192.2855
L264.1280 192.2855
" />
<path d="M264.1280 192.2855
L264.2709 192.3569
" />
<path d="M264.2709 192.3569
L264.3423 192.4283
" />
<path d="M264.3423 192.4283
L264.4137 192.5712
" />
<path d="M264.4137 192.5712
L264.4137 192.7855
" />
<path d="M264.4137 192.7855
L264.3423 192.9283
" />
<path d="M264.3423 192.9283
L264.2709 192.9998
" />
<path d="M264.2709 192.9998
L264.1280 193.0712
" />
<path d="M264.1280 193.0712
L263.5566 193.0712
" />
<path d="M265.6280 193.7141
L265.4852 193.7855
" />
<path d="M265.4852 193.7855
L265.1995 193.7855
" />
<path d="M265.1995 193.7855
L265.0566 193.7141
" />
<path d="M265.0566 193.7141
L264.9852 193.5712
" />
<path d="M264.9852 193.5712
L264.9852 192.9998
" />
<path d="M264.9852 192.9998
L265.0566 192.8569
" />
<path d="M265.0566 192.8569
L265.1995 192.7855
" />
<path d="M265.1995 192.7855
L265.4852 192.7855
" />
<path d="M265.4852 192.7855
L265.6280 192.8569
" />
<path d="M265.6280 192.8569
L265.6995 192.9998
" />
<path d="M265.6995 192.9998
L265.6995 193.1426
" />
<path d="M265.6995 193.1426
L264.9852 193.2855
" />
<path d="M266.1994 192.7855
L266.5566 193.7855
" />
<path d="M266.5566 193.7855
L266.9137 192.7855
" />
<path d="M267.4852 193.6426
L267.5566 193.7141
" />
<path d="M267.5566 193.7141
L267.4852 193.7855
" />
<path d="M267.4852 193.7855
L267.4138 193.7141
" />
<path d="M267.4138 193.7141
L267.4852 193.6426
" />
<path d="M267.4852 193.6426
L267.4852 193.7855
" />
<path d="M267.4852 192.8569
L267.5566 192.9283
" />
<path d="M267.5566 192.9283
L267.4852 192.9998
" />
<path d="M267.4852 192.9998
L267.4138 192.9283
" />
<path d="M267.4138 192.9283
L267.4852 192.8569
" />
<path d="M267.4852 192.8569
L267.4852 192.9998
" />
</g></g>
<g style="fill:none; 
stroke:#840000; stroke-width:0.1524; stroke-opacity:1; 
stroke-linecap:round; stroke-linejoin:round;">
<text x="178.0022" y="193.8572"
textLength="9.3716" font-size="2.0000" lengthAdjust="spacingAndGlyphs"
text-anchor="start" opacity="0" stroke-opacity="0">Size: A4</text>
<g class="stroked-text"><desc>Size: A4</desc>
<path d="M178.3881 193.7217
L178.6024 193.7931
" />
<path d="M178.6024 193.7931
L178.9595 193.7931
" />
<path d="M178.9595 193.7931
L179.1024 193.7217
" />
<path d="M179.1024 193.7217
L179.1738 193.6502
" />
<path d="M179.1738 193.6502
L179.2452 193.5074
" />
<path d="M179.2452 193.5074
L179.2452 193.3645
" />
<path d="M179.2452 193.3645
L179.1738 193.2217
" />
<path d="M179.1738 193.2217
L179.1024 193.1502
" />
<path d="M179.1024 193.1502
L178.9595 193.0788
" />
<path d="M178.9595 193.0788
L178.6738 193.0074
" />
<path d="M178.6738 193.0074
L178.5309 192.9359
" />
<path d="M178.5309 192.9359
L178.4595 192.8645
" />
<path d="M178.4595 192.8645
L178.3881 192.7217
" />
<path d="M178.3881 192.7217
L178.3881 192.5788
" />
<path d="M178.3881 192.5788
L178.4595 192.4359
" />
<path d="M178.4595 192.4359
L178.5309 192.3645
" />
<path d="M178.5309 192.3645
L178.6738 192.2931
" />
<path d="M178.6738 192.2931
L179.0309 192.2931
" />
<path d="M179.0309 192.2931
L179.2452 192.3645
" />
<path d="M179.8881 193.7931
L179.8881 192.7931
" />
<path d="M179.8881 192.2931
L179.8167 192.3645
" />
<path d="M179.8167 192.3645
L179.8881 192.4359
" />
<path d="M179.8881 192.4359
L179.9595 192.3645
" />
<path d="M179.9595 192.3645
L179.8881 192.2931
" />
<path d="M179.8881 192.2931
L179.8881 192.4359
" />
<path d="M180.4595 192.7931
L181.2453 192.7931
" />
<path d="M181.2453 192.7931
L180.4595 193.7931
" />
<path d="M180.4595 193.7931
L181.2453 193.7931
" />
<path d="M182.3881 193.7217
L182.2453 193.7931
" />
<path d="M182.2453 193.7931
L181.9596 193.7931
" />
<path d="M181.9596 193.7931
L181.8167 193.7217
" />
<path d="M181.8167 193.7217
L181.7453 193.5788
" />
<path d="M181.7453 193.5788
L181.7453 193.0074
" />
<path d="M181.7453 193.0074
L181.8167 192.8645
" />
<path d="M181.8167 192.8645
L181.9596 192.7931
" />
<path d="M181.9596 192.7931
L182.2453 192.7931
" />
<path d="M182.2453 192.7931
L182.3881 192.8645
" />
<path d="M182.3881 192.8645
L182.4596 193.0074
" />
<path d="M182.4596 193.0074
L182.4596 193.1502
" />
<path d="M182.4596 193.1502
L181.7453 193.2931
" />
<path d="M183.1024 193.6502
L183.1738 193.7217
" />
<path d="M183.1738 193.7217
L183.1024 193.7931
" />
<path d="M183.1024 193.7931
L183.0310 193.7217
" />
<path d="M183.0310 193.7217
L183.1024 193.6502
" />
<path d="M183.1024 193.6502
L183.1024 193.7931
" />
<path d="M183.1024 192.8645
L183.1738 192.9359
" />
<path d="M183.1738 192.9359
L183.1024 193.0074
" />
<path d="M183.1024 193.0074
L183.0310 192.9359
" />
<path d="M183.0310 192.9359
L183.1024 192.8645
" />
<path d="M183.1024 192.8645
L183.1024 193.0074
" />
<path d="M184.8882 193.3645
L185.6025 193.3645
" />
<path d="M184.7453 193.7931
L185.2453 192.2931
" />
<path d="M185.2453 192.2931
L185.7453 193.7931
" />
<path d="M186.8882 192.7931
L186.8882 193.7931
" />
<path d="M186.5310 192.2217
L186.1739 193.2931
" />
<path d="M186.1739 193.2931
L187.1024 193.2931
" />
</g><text x="263.0022" y="196.6572"
textLength="8.5144" font-size="2.0000" lengthAdjust="spacingAndGlyphs"
text-anchor="start" opacity="0" stroke-opacity="0">Id: 1/1</text>
<g class="stroked-text"><desc>Id: 1/1</desc>
<path d="M263.4595 196.5931
L263.4595 195.0931
" />
<path d="M264.8167 196.5931
L264.8167 195.0931
" />
<path d="M264.8167 196.5217
L264.6738 196.5931
" />
<path d="M264.6738 196.5931
L264.3881 196.5931
" />
<path d="M264.3881 196.5931
L264.2452 196.5217
" />
<path d="M264.2452 196.5217
L264.1738 196.4502
" />
<path d="M264.1738 196.4502
L264.1024 196.3074
" />
<path d="M264.1024 196.3074
L264.1024 195.8788
" />
<path d="M264.1024 195.8788
L264.1738 195.7359
" />
<path d="M264.1738 195.7359
L264.2452 195.6645
" />
<path d="M264.2452 195.6645
L264.3881 195.5931
" />
<path d="M264.3881 195.5931
L264.6738 195.5931
" />
<path d="M264.6738 195.5931
L264.8167 195.6645
" />
<path d="M265.5309 196.4502
L265.6023 196.5217
" />
<path d="M265.6023 196.5217
L265.5309 196.5931
" />
<path d="M265.5309 196.5931
L265.4595 196.5217
" />
<path d="M265.4595 196.5217
L265.5309 196.4502
" />
<path d="M265.5309 196.4502
L265.5309 196.5931
" />
<path d="M265.5309 195.6645
L265.6023 195.7359
" />
<path d="M265.6023 195.7359
L265.5309 195.8074
" />
<path d="M265.5309 195.8074
L265.4595 195.7359
" />
<path d="M265.4595 195.7359
L265.5309 195.6645
" />
<path d="M265.5309 195.6645
L265.5309 195.8074
" />
<path d="M268.1738 196.5931
L267.3167 196.5931
" />
<path d="M267.7452 196.5931
L267.7452 195.0931
" />
<path d="M267.7452 195.0931
L267.6024 195.3074
" />
<path d="M267.6024 195.3074
L267.4595 195.4502
" />
<path d="M267.4595 195.4502
L267.3167 195.5217
" />
<path d="M269.8881 195.0217
L268.6024 196.9502
" />
<path d="M271.1738 196.5931
L270.3167 196.5931
" />
<path d="M270.7452 196.5931
L270.7452 195.0931
" />
<path d="M270.7452 195.0931
L270.6024 195.3074
" />
<path d="M270.6024 195.3074
L270.4595 195.4502
" />
<path d="M270.4595 195.4502
L270.3167 195.5217
" />
</g><path d="M177.0022 187.5072
L285.0022 187.5072
" />
</g>
<g style="fill:none; 
stroke:#840000; stroke-width:0.4000; stroke-opacity:1; 
stroke-linecap:round; stroke-linejoin:round;">
<text x="178.0022" y="190.3072"
textLength="9.6572" font-size="2.6666" lengthAdjust="spacingAndGlyphs"
text-anchor="start" opacity="0" stroke-opacity="0">Title: </text>
<g class="stroked-text"><desc>Title: </desc>
<path d="M178.6938 188.2116
L179.8367 188.2116
" />
<path d="M179.0153 190.2116
L179.2653 188.2116
" />
<path d="M180.2533 190.2116
L180.4200 188.8783
" />
<path d="M180.5033 188.2116
L180.3962 188.3068
" />
<path d="M180.3962 188.3068
L180.4795 188.4021
" />
<path d="M180.4795 188.4021
L180.5867 188.3068
" />
<path d="M180.5867 188.3068
L180.5033 188.2116
" />
<path d="M180.5033 188.2116
L180.4795 188.4021
" />
<path d="M181.0867 188.8783
L181.8486 188.8783
" />
<path d="M181.4557 188.2116
L181.2415 189.9259
" />
<path d="M181.2415 189.9259
L181.3129 190.1164
" />
<path d="M181.3129 190.1164
L181.4915 190.2116
" />
<path d="M181.4915 190.2116
L181.6819 190.2116
" />
<path d="M182.6344 190.2116
L182.4558 190.1164
" />
<path d="M182.4558 190.1164
L182.3844 189.9259
" />
<path d="M182.3844 189.9259
L182.5986 188.2116
" />
<path d="M184.1700 190.1164
L183.9677 190.2116
" />
<path d="M183.9677 190.2116
L183.5867 190.2116
" />
<path d="M183.5867 190.2116
L183.4081 190.1164
" />
<path d="M183.4081 190.1164
L183.3367 189.9259
" />
<path d="M183.3367 189.9259
L183.4320 189.1640
" />
<path d="M183.4320 189.1640
L183.5510 188.9735
" />
<path d="M183.5510 188.9735
L183.7534 188.8783
" />
<path d="M183.7534 188.8783
L184.1343 188.8783
" />
<path d="M184.1343 188.8783
L184.3129 188.9735
" />
<path d="M184.3129 188.9735
L184.3843 189.1640
" />
<path d="M184.3843 189.1640
L184.3605 189.3544
" />
<path d="M184.3605 189.3544
L183.3843 189.5449
" />
<path d="M185.1343 190.0211
L185.2177 190.1164
" />
<path d="M185.2177 190.1164
L185.1105 190.2116
" />
<path d="M185.1105 190.2116
L185.0272 190.1164
" />
<path d="M185.0272 190.1164
L185.1343 190.0211
" />
<path d="M185.1343 190.0211
L185.1105 190.2116
" />
<path d="M185.2653 188.9735
L185.3486 189.0687
" />
<path d="M185.3486 189.0687
L185.2415 189.1640
" />
<path d="M185.2415 189.1640
L185.1582 189.0687
" />
<path d="M185.1582 189.0687
L185.2653 188.9735
" />
<path d="M185.2653 188.9735
L185.2415 189.1640
" />
</g></g>
<g style="fill:none; 
stroke:#840000; stroke-width:0.1524; stroke-opacity:1; 
stroke-linecap:round; stroke-linejoin:round;">
<text x="178.0022" y="186.4572"
textLength="41.3711" font-size="2.0000" lengthAdjust="spacingAndGlyphs"
text-anchor="start" opacity="0" stroke-opacity="0">File: sao_coincell_adaptor.kicad_sch</text>
<g class="stroked-text"><desc>File: sao_coincell_adaptor.kicad_sch</desc>
<path d="M178.9595 185.6074
L178.4595 185.6074
" />
<path d="M178.4595 186.3931
L178.4595 184.8931
" />
<path d="M178.4595 184.8931
L179.1738 184.8931
" />
<path d="M179.7452 186.3931
L179.7452 185.3931
" />
<path d="M179.7452 184.8931
L179.6738 184.9645
" />
<path d="M179.6738 184.9645
L179.7452 185.0359
" />
<path d="M179.7452 185.0359
L179.8166 184.9645
" />
<path d="M179.8166 184.9645
L179.7452 184.8931
" />
<path d="M179.7452 184.8931
L179.7452 185.0359
" />
<path d="M180.6738 186.3931
L180.5309 186.3217
" />
<path d="M180.5309 186.3217
L180.4595 186.1788
" />
<path d="M180.4595 186.1788
L180.4595 184.8931
" />
<path d="M181.8166 186.3217
L181.6738 186.3931
" />
<path d="M181.6738 186.3931
L181.3881 186.3931
" />
<path d="M181.3881 186.3931
L181.2452 186.3217
" />
<path d="M181.2452 186.3217
L181.1738 186.1788
" />
<path d="M181.1738 186.1788
L181.1738 185.6074
" />
<path d="M181.1738 185.6074
L181.2452 185.4645
" />
<path d="M181.2452 185.4645
L181.3881 185.3931
" />
<path d="M181.3881 185.3931
L181.6738 185.3931
" />
<path d="M181.6738 185.3931
L181.8166 185.4645
" />
<path d="M181.8166 185.4645
L181.8881 185.6074
" />
<path d="M181.8881 185.6074
L181.8881 185.7502
" />
<path d="M181.8881 185.7502
L181.1738 185.8931
" />
<path d="M182.5309 186.2502
L182.6023 186.3217
" />
<path d="M182.6023 186.3217
L182.5309 186.3931
" />
<path d="M182.5309 186.3931
L182.4595 186.3217
" />
<path d="M182.4595 186.3217
L182.5309 186.2502
" />
<path d="M182.5309 186.2502
L182.5309 186.3931
" />
<path d="M182.5309 185.4645
L182.6023 185.5359
" />
<path d="M182.6023 185.5359
L182.5309 185.6074
" />
<path d="M182.5309 185.6074
L182.4595 185.5359
" />
<path d="M182.4595 185.5359
L182.5309 185.4645
" />
<path d="M182.5309 185.4645
L182.5309 185.6074
" />
<path d="M184.3167 186.3217
L184.4595 186.3931
" />
<path d="M184.4595 186.3931
L184.7452 186.3931
" />
<path d="M184.7452 186.3931
L184.8881 186.3217
" />
<path d="M184.8881 186.3217
L184.9595 186.1788
" />
<path d="M184.9595 186.1788
L184.9595 186.1074
" />
<path d="M184.9595 186.1074
L184.8881 185.9645
" />
<path d="M184.8881 185.9645
L184.7452 185.8931
" />
<path d="M184.7452 185.8931
L184.5310 185.8931
" />
<path d="M184.5310 185.8931
L184.3881 185.8217
" />
<path d="M184.3881 185.8217
L184.3167 185.6788
" />
<path d="M184.3167 185.6788
L184.3167 185.6074
" />
<path d="M184.3167 185.6074
L184.3881 185.4645
" />
<path d="M184.3881 185.4645
L184.5310 185.3931
" />
<path d="M184.5310 185.3931
L184.7452 185.3931
" />
<path d="M184.7452 185.3931
L184.8881 185.4645
" />
<path d="M186.2453 186.3931
L186.2453 185.6074
" />
<path d="M186.2453 185.6074
L186.1738 185.4645
" />
<path d="M186.1738 185.4645
L186.0310 185.3931
" />
<path d="M186.0310 185.3931
L185.7453 185.3931
" />
<path d="M185.7453 185.3931
L185.6024 185.4645
" />
<path d="M186.2453 186.3217
L186.1024 186.3931
" />
<path d="M186.1024 186.3931
L185.7453 186.3931
" />
<path d="M185.7453 186.3931
L185.6024 186.3217
" />
<path d="M185.6024 186.3217
L185.5310 186.1788
" />
<path d="M185.5310 186.1788
L185.5310 186.0359
" />
<path d="M185.5310 186.0359
L185.6024 185.8931
" />
<path d="M185.6024 185.8931
L185.7453 185.8217
" />
<path d="M185.7453 185.8217
L186.1024 185.8217
" />
<path d="M186.1024 185.8217
L186.2453 185.7502
" />
<path d="M187.1738 186.3931
L187.0309 186.3217
" />
<path d="M187.0309 186.3217
L186.9595 186.2502
" />
<path d="M186.9595 186.2502
L186.8881 186.1074
" />
<path d="M186.8881 186.1074
L186.8881 185.6788
" />
<path d="M186.8881 185.6788
L186.9595 185.5359
" />
<path d="M186.9595 185.5359
L187.0309 185.4645
" />
<path d="M187.0309 185.4645
L187.1738 185.3931
" />
<path d="M187.1738 185.3931
L187.3881 185.3931
" />
<path d="M187.3881 185.3931
L187.5309 185.4645
" />
<path d="M187.5309 185.4645
L187.6024 185.5359
" />
<path d="M187.6024 185.5359
L187.6738 185.6788
" />
<path d="M187.6738 185.6788
L187.6738 186.1074
" />
<path d="M187.6738 186.1074
L187.6024 186.2502
" />
<path d="M187.6024 186.2502
L187.5309 186.3217
" />
<path d="M187.5309 186.3217
L187.3881 186.3931
" />
<path d="M187.3881 186.3931
L187.1738 186.3931
" />
<path d="M187.9595 186.5359
L189.1023 186.5359
" />
<path d="M190.1024 186.3217
L189.9595 186.3931
" />
<path d="M189.9595 186.3931
L189.6738 186.3931
" />
<path d="M189.6738 186.3931
L189.5309 186.3217
" />
<path d="M189.5309 186.3217
L189.4595 186.2502
" />
<path d="M189.4595 186.2502
L189.3881 186.1074
" />
<path d="M189.3881 186.1074
L189.3881 185.6788
" />
<path d="M189.3881 185.6788
L189.4595 185.5359
" />
<path d="M189.4595 185.5359
L189.5309 185.4645
" />
<path d="M189.5309 185.4645
L189.6738 185.3931
" />
<path d="M189.6738 185.3931
L189.9595 185.3931
" />
<path d="M189.9595 185.3931
L190.1024 185.4645
" />
<path d="M190.9595 186.3931
L190.8166 186.3217
" />
<path d="M190.8166 186.3217
L190.7452 186.2502
" />
<path d="M190.7452 186.2502
L190.6738 186.1074
" />
<path d="M190.6738 186.1074
L190.6738 185.6788
" />
<path d="M190.6738 185.6788
L190.7452 185.5359
" />
<path d="M190.7452 185.5359
L190.8166 185.4645
" />
<path d="M190.8166 185.4645
L190.9595 185.3931
" />
<path d="M190.9595 185.3931
L191.1738 185.3931
" />
<path d="M191.1738 185.3931
L191.3166 185.4645
" />
<path d="M191.3166 185.4645
L191.3881 185.5359
" />
<path d="M191.3881 185.5359
L191.4595 185.6788
" />
<path d="M191.4595 185.6788
L191.4595 186.1074
" />
<path d="M191.4595 186.1074
L191.3881 186.2502
" />
<path d="M191.3881 186.2502
L191.3166 186.3217
" />
<path d="M191.3166 186.3217
L191.1738 186.3931
" />
<path d="M191.1738 186.3931
L190.9595 186.3931
" />
<path d="M192.1023 186.3931
L192.1023 185.3931
" />
<path d="M192.1023 184.8931
L192.0309 184.9645
" />
<path d="M192.0309 184.9645
L192.1023 185.0359
" />
<path d="M192.1023 185.0359
L192.1737 184.9645
" />
<path d="M192.1737 184.9645
L192.1023 184.8931
" />
<path d="M192.1023 184.8931
L192.1023 185.0359
" />
<path d="M192.8166 185.3931
L192.8166 186.3931
" />
<path d="M192.8166 185.5359
L192.8880 185.4645
" />
<path d="M192.8880 185.4645
L193.0309 185.3931
" />
<path d="M193.0309 185.3931
L193.2452 185.3931
" />
<path d="M193.2452 185.3931
L193.3880 185.4645
" />
<path d="M193.3880 185.4645
L193.4595 185.6074
" />
<path d="M193.4595 185.6074
L193.4595 186.3931
" />
<path d="M194.8166 186.3217
L194.6737 186.3931
" />
<path d="M194.6737 186.3931
L194.3880 186.3931
" />
<path d="M194.3880 186.3931
L194.2451 186.3217
" />
<path d="M194.2451 186.3217
L194.1737 186.2502
" />
<path d="M194.1737 186.2502
L194.1023 186.1074
" />
<path d="M194.1023 186.1074
L194.1023 185.6788
" />
<path d="M194.1023 185.6788
L194.1737 185.5359
" />
<path d="M194.1737 185.5359
L194.2451 185.4645
" />
<path d="M194.2451 185.4645
L194.3880 185.3931
" />
<path d="M194.3880 185.3931
L194.6737 185.3931
" />
<path d="M194.6737 185.3931
L194.8166 185.4645
" />
<path d="M196.0308 186.3217
L195.8880 186.3931
" />
<path d="M195.8880 186.3931
L195.6023 186.3931
" />
<path d="M195.6023 186.3931
L195.4594 186.3217
" />
<path d="M195.4594 186.3217
L195.3880 186.1788
" />
<path d="M195.3880 186.1788
L195.3880 185.6074
" />
<path d="M195.3880 185.6074
L195.4594 185.4645
" />
<path d="M195.4594 185.4645
L195.6023 185.3931
" />
<path d="M195.6023 185.3931
L195.8880 185.3931
" />
<path d="M195.8880 185.3931
L196.0308 185.4645
" />
<path d="M196.0308 185.4645
L196.1023 185.6074
" />
<path d="M196.1023 185.6074
L196.1023 185.7502
" />
<path d="M196.1023 185.7502
L195.3880 185.8931
" />
<path d="M196.9594 186.3931
L196.8165 186.3217
" />
<path d="M196.8165 186.3217
L196.7451 186.1788
" />
<path d="M196.7451 186.1788
L196.7451 184.8931
" />
<path d="M197.7451 186.3931
L197.6022 186.3217
" />
<path d="M197.6022 186.3217
L197.5308 186.1788
" />
<path d="M197.5308 186.1788
L197.5308 184.8931
" />
<path d="M197.9594 186.5359
L199.1022 186.5359
" />
<path d="M200.1023 186.3931
L200.1023 185.6074
" />
<path d="M200.1023 185.6074
L200.0308 185.4645
" />
<path d="M200.0308 185.4645
L199.8880 185.3931
" />
<path d="M199.8880 185.3931
L199.6023 185.3931
" />
<path d="M199.6023 185.3931
L199.4594 185.4645
" />
<path d="M200.1023 186.3217
L199.9594 186.3931
" />
<path d="M199.9594 186.3931
L199.6023 186.3931
" />
<path d="M199.6023 186.3931
L199.4594 186.3217
" />
<path d="M199.4594 186.3217
L199.3880 186.1788
" />
<path d="M199.3880 186.1788
L199.3880 186.0359
" />
<path d="M199.3880 186.0359
L199.4594 185.8931
" />
<path d="M199.4594 185.8931
L199.6023 185.8217
" />
<path d="M199.6023 185.8217
L199.9594 185.8217
" />
<path d="M199.9594 185.8217
L200.1023 185.7502
" />
<path d="M201.4594 186.3931
L201.4594 184.8931
" />
<path d="M201.4594 186.3217
L201.3165 186.3931
" />
<path d="M201.3165 186.3931
L201.0308 186.3931
" />
<path d="M201.0308 186.3931
L200.8879 186.3217
" />
<path d="M200.8879 186.3217
L200.8165 186.2502
" />
<path d="M200.8165 186.2502
L200.7451 186.1074
" />
<path d="M200.7451 186.1074
L200.7451 185.6788
" />
<path d="M200.7451 185.6788
L200.8165 185.5359
" />
<path d="M200.8165 185.5359
L200.8879 185.4645
" />
<path d="M200.8879 185.4645
L201.0308 185.3931
" />
<path d="M201.0308 185.3931
L201.3165 185.3931
" />
<path d="M201.3165 185.3931
L201.4594 185.4645
" />
<path d="M202.8165 186.3931
L202.8165 185.6074
" />
<path d="M202.8165 185.6074
L202.7450 185.4645
" />
<path d="M202.7450 185.4645
L202.6022 185.3931
" />
<path d="M202.6022 185.3931
L202.3165 185.3931
" />
<path d="M202.3165 185.3931
L202.1736 185.4645
" />
<path d="M202.8165 186.3217
L202.6736 186.3931
" />
<path d="M202.6736 186.3931
L202.3165 186.3931
" />
<path d="M202.3165 186.3931
L202.1736 186.3217
" />
<path d="M202.1736 186.3217
L202.1022 186.1788
" />
<path d="M202.1022 186.1788
L202.1022 186.0359
" />
<path d="M202.1022 186.0359
L202.1736 185.8931
" />
<path d="M202.1736 185.8931
L202.3165 185.8217
" />
<path d="M202.3165 185.8217
L202.6736 185.8217
" />
<path d="M202.6736 185.8217
L202.8165 185.7502
" />
<path d="M203.5307 185.3931
L203.5307 186.8931
" />
<path d="M203.5307 185.4645
L203.6736 185.3931
" />
<path d="M203.6736 185.3931
L203.9593 185.3931
" />
<path d="M203.9593 185.3931
L204.1021 185.4645
" />
<path d="M204.1021 185.4645
L204.1736 185.5359
" />
<path d="M204.1736 185.5359
L204.2450 185.6788
" />
<path d="M204.2450 185.6788
L204.2450 186.1074
" />
<path d="M204.2450 186.1074
L204.1736 186.2502
" />
<path d="M204.1736 186.2502
L204.1021 186.3217
" />
<path d="M204.1021 186.3217
L203.9593 186.3931
" />
<path d="M203.9593 186.3931
L203.6736 186.3931
" />
<path d="M203.6736 186.3931
L203.5307 186.3217
" />
<path d="M204.6735 185.3931
L205.2449 185.3931
" />
<path d="M204.8878 184.8931
L204.8878 186.1788
" />
<path d="M204.8878 186.1788
L204.9592 186.3217
" />
<path d="M204.9592 186.3217
L205.1021 186.3931
" />
<path d="M205.1021 186.3931
L205.2449 186.3931
" />
<path d="M205.9592 186.3931
L205.8163 186.3217
" />
<path d="M205.8163 186.3217
L205.7449 186.2502
" />
<path d="M205.7449 186.2502
L205.6735 186.1074
" />
<path d="M205.6735 186.1074
L205.6735 185.6788
" />
<path d="M205.6735 185.6788
L205.7449 185.5359
" />
<path d="M205.7449 185.5359
L205.8163 185.4645
" />
<path d="M205.8163 185.4645
L205.9592 185.3931
" />
<path d="M205.9592 185.3931
L206.1735 185.3931
" />
<path d="M206.1735 185.3931
L206.3163 185.4645
" />
<path d="M206.3163 185.4645
L206.3878 185.5359
" />
<path d="M206.3878 185.5359
L206.4592 185.6788
" />
<path d="M206.4592 185.6788
L206.4592 186.1074
" />
<path d="M206.4592 186.1074
L206.3878 186.2502
" />
<path d="M206.3878 186.2502
L206.3163 186.3217
" />
<path d="M206.3163 186.3217
L206.1735 186.3931
" />
<path d="M206.1735 186.3931
L205.9592 186.3931
" />
<path d="M207.1020 186.3931
L207.1020 185.3931
" />
<path d="M207.1020 185.6788
L207.1734 185.5359
" />
<path d="M207.1734 185.5359
L207.2449 185.4645
" />
<path d="M207.2449 185.4645
L207.3877 185.3931
" />
<path d="M207.3877 185.3931
L207.5306 185.3931
" />
<path d="M208.0306 186.2502
L208.1020 186.3217
" />
<path d="M208.1020 186.3217
L208.0306 186.3931
" />
<path d="M208.0306 186.3931
L207.9592 186.3217
" />
<path d="M207.9592 186.3217
L208.0306 186.2502
" />
<path d="M208.0306 186.2502
L208.0306 186.3931
" />
<path d="M208.7449 186.3931
L208.7449 184.8931
" />
<path d="M208.8878 185.8217
L209.3163 186.3931
" />
<path d="M209.3163 185.3931
L208.7449 185.9645
" />
<path d="M209.9592 186.3931
L209.9592 185.3931
" />
<path d="M209.9592 184.8931
L209.8878 184.9645
" />
<path d="M209.8878 184.9645
L209.9592 185.0359
" />
<path d="M209.9592 185.0359
L210.0306 184.9645
" />
<path d="M210.0306 184.9645
L209.9592 184.8931
" />
<path d="M209.9592 184.8931
L209.9592 185.0359
" />
<path d="M211.3164 186.3217
L211.1735 186.3931
" />
<path d="M211.1735 186.3931
L210.8878 186.3931
" />
<path d="M210.8878 186.3931
L210.7449 186.3217
" />
<path d="M210.7449 186.3217
L210.6735 186.2502
" />
<path d="M210.6735 186.2502
L210.6021 186.1074
" />
<path d="M210.6021 186.1074
L210.6021 185.6788
" />
<path d="M210.6021 185.6788
L210.6735 185.5359
" />
<path d="M210.6735 185.5359
L210.7449 185.4645
" />
<path d="M210.7449 185.4645
L210.8878 185.3931
" />
<path d="M210.8878 185.3931
L211.1735 185.3931
" />
<path d="M211.1735 185.3931
L211.3164 185.4645
" />
<path d="M212.6021 186.3931
L212.6021 185.6074
" />
<path d="M212.6021 185.6074
L212.5306 185.4645
" />
<path d="M212.5306 185.4645
L212.3878 185.3931
" />
<path d="M212.3878 185.3931
L212.1021 185.3931
" />
<path d="M212.1021 185.3931
L211.9592 185.4645
" />
<path d="M212.6021 186.3217
L212.4592 186.3931
" />
<path d="M212.4592 186.3931
L212.1021 186.3931
" />
<path d="M212.1021 186.3931
L211.9592 186.3217
" />
<path d="M211.9592 186.3217
L211.8878 186.1788
" />
<path d="M211.8878 186.1788
L211.8878 186.0359
" />
<path d="M211.8878 186.0359
L211.9592 185.8931
" />
<path d="M211.9592 185.8931
L212.1021 185.8217
" />
<path d="M212.1021 185.8217
L212.4592 185.8217
" />
<path d="M212.4592 185.8217
L212.6021 185.7502
" />
<path d="M213.9592 186.3931
L213.9592 184.8931
" />
<path d="M213.9592 186.3217
L213.8163 186.3931
" />
<path d="M213.8163 186.3931
L213.5306 186.3931
" />
<path d="M213.5306 186.3931
L213.3877 186.3217
" />
<path d="M213.3877 186.3217
L213.3163 186.2502
" />
<path d="M213.3163 186.2502
L213.2449 186.1074
" />
<path d="M213.2449 186.1074
L213.2449 185.6788
" />
<path d="M213.2449 185.6788
L213.3163 185.5359
" />
<path d="M213.3163 185.5359
L213.3877 185.4645
" />
<path d="M213.3877 185.4645
L213.5306 185.3931
" />
<path d="M213.5306 185.3931
L213.8163 185.3931
" />
<path d="M213.8163 185.3931
L213.9592 185.4645
" />
<path d="M214.3163 186.5359
L215.4591 186.5359
" />
<path d="M215.7449 186.3217
L215.8877 186.3931
" />
<path d="M215.8877 186.3931
L216.1734 186.3931
" />
<path d="M216.1734 186.3931
L216.3163 186.3217
" />
<path d="M216.3163 186.3217
L216.3877 186.1788
" />
<path d="M216.3877 186.1788
L216.3877 186.1074
" />
<path d="M216.3877 186.1074
L216.3163 185.9645
" />
<path d="M216.3163 185.9645
L216.1734 185.8931
" />
<path d="M216.1734 185.8931
L215.9592 185.8931
" />
<path d="M215.9592 185.8931
L215.8163 185.8217
" />
<path d="M215.8163 185.8217
L215.7449 185.6788
" />
<path d="M215.7449 185.6788
L215.7449 185.6074
" />
<path d="M215.7449 185.6074
L215.8163 185.4645
" />
<path d="M215.8163 185.4645
L215.9592 185.3931
" />
<path d="M215.9592 185.3931
L216.1734 185.3931
" />
<path d="M216.1734 185.3931
L216.3163 185.4645
" />
<path d="M217.6735 186.3217
L217.5306 186.3931
" />
<path d="M217.5306 186.3931
L217.2449 186.3931
" />
<path d="M217.2449 186.3931
L217.1020 186.3217
" />
<path d="M217.1020 186.3217
L217.0306 186.2502
" />
<path d="M217.0306 186.2502
L216.9592 186.1074
" />
<path d="M216.9592 186.1074
L216.9592 185.6788
" />
<path d="M216.9592 185.6788
L217.0306 185.5359
" />
<path d="M217.0306 185.5359
L217.1020 185.4645
" />
<path d="M217.1020 185.4645
L217.2449 185.3931
" />
<path d="M217.2449 185.3931
L217.5306 185.3931
" />
<path d="M217.5306 185.3931
L217.6735 185.4645
" />
<path d="M218.3163 186.3931
L218.3163 184.8931
" />
<path d="M218.9592 186.3931
L218.9592 185.6074
" />
<path d="M218.9592 185.6074
L218.8877 185.4645
" />
<path d="M218.8877 185.4645
L218.7449 185.3931
" />
<path d="M218.7449 185.3931
L218.5306 185.3931
" />
<path d="M218.5306 185.3931
L218.3877 185.4645
" />
<path d="M218.3877 185.4645
L218.3163 185.5359
" />
</g><path d="M177.0022 181.5072
L285.0022 181.5072
" />
<text x="178.0022" y="183.7572"
textLength="9.8000" font-size="2.0000" lengthAdjust="spacingAndGlyphs"
text-anchor="start" opacity="0" stroke-opacity="0">Sheet: /</text>
<g class="stroked-text"><desc>Sheet: /</desc>
<path d="M178.3881 183.6217
L178.6024 183.6931
" />
<path d="M178.6024 183.6931
L178.9595 183.6931
" />
<path d="M178.9595 183.6931
L179.1024 183.6217
" />
<path d="M179.1024 183.6217
L179.1738 183.5502
" />
<path d="M179.1738 183.5502
L179.2452 183.4074
" />
<path d="M179.2452 183.4074
L179.2452 183.2645
" />
<path d="M179.2452 183.2645
L179.1738 183.1217
" />
<path d="M179.1738 183.1217
L179.1024 183.0502
" />
<path d="M179.1024 183.0502
L178.9595 182.9788
" />
<path d="M178.9595 182.9788
L178.6738 182.9074
" />
<path d="M178.6738 182.9074
L178.5309 182.8359
" />
<path d="M178.5309 182.8359
L178.4595 182.7645
" />
<path d="M178.4595 182.7645
L178.3881 182.6217
" />
<path d="M178.3881 182.6217
L178.3881 182.4788
" />
<path d="M178.3881 182.4788
L178.4595 182.3359
" />
<path d="M178.4595 182.3359
L178.5309 182.2645
" />
<path d="M178.5309 182.2645
L178.6738 182.1931
" />
<path d="M178.6738 182.1931
L179.0309 182.1931
" />
<path d="M179.0309 182.1931
L179.2452 182.2645
" />
<path d="M179.8881 183.6931
L179.8881 182.1931
" />
<path d="M180.5310 183.6931
L180.5310 182.9074
" />
<path d="M180.5310 182.9074
L180.4595 182.7645
" />
<path d="M180.4595 182.7645
L180.3167 182.6931
" />
<path d="M180.3167 182.6931
L180.1024 182.6931
" />
<path d="M180.1024 182.6931
L179.9595 182.7645
" />
<path d="M179.9595 182.7645
L179.8881 182.8359
" />
<path d="M181.8166 183.6217
L181.6738 183.6931
" />
<path d="M181.6738 183.6931
L181.3881 183.6931
" />
<path d="M181.3881 183.6931
L181.2452 183.6217
" />
<path d="M181.2452 183.6217
L181.1738 183.4788
" />
<path d="M181.1738 183.4788
L181.1738 182.9074
" />
<path d="M181.1738 182.9074
L181.2452 182.7645
" />
<path d="M181.2452 182.7645
L181.3881 182.6931
" />
<path d="M181.3881 182.6931
L181.6738 182.6931
" />
<path d="M181.6738 182.6931
L181.8166 182.7645
" />
<path d="M181.8166 182.7645
L181.8881 182.9074
" />
<path d="M181.8881 182.9074
L181.8881 183.0502
" />
<path d="M181.8881 183.0502
L181.1738 183.1931
" />
<path d="M183.1023 183.6217
L182.9595 183.6931
" />
<path d="M182.9595 183.6931
L182.6738 183.6931
" />
<path d="M182.6738 183.6931
L182.5309 183.6217
" />
<path d="M182.5309 183.6217
L182.4595 183.4788
" />
<path d="M182.4595 183.4788
L182.4595 182.9074
" />
<path d="M182.4595 182.9074
L182.5309 182.7645
" />
<path d="M182.5309 182.7645
L182.6738 182.6931
" />
<path d="M182.6738 182.6931
L182.9595 182.6931
" />
<path d="M182.9595 182.6931
L183.1023 182.7645
" />
<path d="M183.1023 182.7645
L183.1738 182.9074
" />
<path d="M183.1738 182.9074
L183.1738 183.0502
" />
<path d="M183.1738 183.0502
L182.4595 183.1931
" />
<path d="M183.6023 182.6931
L184.1737 182.6931
" />
<path d="M183.8166 182.1931
L183.8166 183.4788
" />
<path d="M183.8166 183.4788
L183.8880 183.6217
" />
<path d="M183.8880 183.6217
L184.0309 183.6931
" />
<path d="M184.0309 183.6931
L184.1737 183.6931
" />
<path d="M184.6737 183.5502
L184.7451 183.6217
" />
<path d="M184.7451 183.6217
L184.6737 183.6931
" />
<path d="M184.6737 183.6931
L184.6023 183.6217
" />
<path d="M184.6023 183.6217
L184.6737 183.5502
" />
<path d="M184.6737 183.5502
L184.6737 183.6931
" />
<path d="M184.6737 182.7645
L184.7451 182.8359
" />
<path d="M184.7451 182.8359
L184.6737 182.9074
" />
<path d="M184.6737 182.9074
L184.6023 182.8359
" />
<path d="M184.6023 182.8359
L184.6737 182.7645
" />
<path d="M184.6737 182.7645
L184.6737 182.9074
" />
<path d="M187.6023 182.1217
L186.3166 184.0502
" />
</g></g>
<g style="fill:none; 
stroke:#840000; stroke-width:0.3000; stroke-opacity:1; 
stroke-linecap:round; stroke-linejoin:round;">
<text x="178.0022" y="180.7572"
textLength="0.9000" font-size="2.0000" lengthAdjust="spacingAndGlyphs"
text-anchor="start" opacity="0" stroke-opacity="0"></text>
<g class="stroked-text"><desc></desc>
</g></g>
<g style="fill:none; 
stroke:#840000; stroke-width:0.1524; stroke-opacity:1; 
stroke-linecap:round; stroke-linejoin:round;">
<text x="178.0022" y="177.7572"
textLength="0.4572" font-size="2.0000" lengthAdjust="spacingAndGlyphs"
text-anchor="start" opacity="0" stroke-opacity="0"></text>
<g class="stroked-text"><desc></desc>
</g><text x="178.0022" y="174.7572"
textLength="0.4572" font-size="2.0000" lengthAdjust="spacingAndGlyphs"
text-anchor="start" opacity="0" stroke-opacity="0"></text>
<g class="stroked-text"><desc></desc>
</g><text x="178.0022" y="171.7572"
textLength="0.4572" font-size="2.0000" lengthAdjust="spacingAndGlyphs"
text-anchor="start" opacity="0" stroke-opacity="0"></text>
<g class="stroked-text"><desc></desc>
</g><text x="178.0022" y="168.7572"
textLength="0.4572" font-size="2.0000" lengthAdjust="spacingAndGlyphs"
text-anchor="start" opacity="0" stroke-opacity="0"></text>
<g class="stroked-text"><desc></desc>
</g><path d="M197.0022 191.5072
L197.0022 194.5072
" />
<path d="M261.0022 191.5072
L261.0022 198.0072
" />
</g>
<g style="fill:#FFFFC2; fill-opacity:1.0000; stroke:none;">
<rect x="106.680000" y="72.390000" width="5.080000" height="7.620000" rx="0.000000" />
</g>
<g style="fill:none; 
stroke:#840000; stroke-width:0.2540; stroke-opacity:1; 
stroke-linecap:round; stroke-linejoin:round;">
<rect x="106.680000" y="72.390000" width="5.080000" height="7.620000" rx="0.000000" />
</g>
<g style="fill:none; 
stroke:#840000; stroke-width:0.1524; stroke-opacity:1; 
stroke-linecap:round; stroke-linejoin:round;">
<rect x="106.680000" y="73.533000" width="1.270000" height="0.254000" rx="0.000000" />
<rect x="106.680000" y="76.073000" width="1.270000" height="0.254000" rx="0.000000" />
<rect x="106.680000" y="78.613000" width="1.270000" height="0.254000" rx="0.000000" />
<rect x="110.490000" y="73.533000" width="1.270000" height="0.254000" rx="0.000000" />
<rect x="110.490000" y="76.073000" width="1.270000" height="0.254000" rx="0.000000" />
<rect x="110.490000" y="78.613000" width="1.270000" height="0.254000" rx="0.000000" />
<path d="M106.6800 73.6600
L102.8700 73.6600
" />
</g>
<g style="fill:none; 
stroke:#A90000; stroke-width:0.1524; stroke-opacity:1; 
stroke-linecap:round; stroke-linejoin:round;">
<text x="104.7750" y="73.4060"
textLength="1.4127" font-size="1.6933" lengthAdjust="spacingAndGlyphs"
text-anchor="middle" opacity="0" stroke-opacity="0">1</text>
<g class="stroked-text"><desc>1</desc>
<path d="M105.1379 73.2425
L104.4122 73.2425
" />
<path d="M104.7750 73.2425
L104.7750 71.9725
" />
<path d="M104.7750 71.9725
L104.6541 72.1540
" />
<path d="M104.6541 72.1540
L104.5331 72.2749
" />
<path d="M104.5331 72.2749
L104.4122 72.3354
" />
</g></g>
<g style="fill:none; 
stroke:#840000; stroke-width:0.1524; stroke-opacity:1; 
stroke-linecap:round; stroke-linejoin:round;">
<path d="M106.6800 76.2000
L102.8700 76.2000
" />
</g>
<g style="fill:none; 
stroke:#A90000; stroke-width:0.1524; stroke-opacity:1; 
stroke-linecap:round; stroke-linejoin:round;">
<text x="104.7750" y="75.9460"
textLength="1.4127" font-size="1.6933" lengthAdjust="spacingAndGlyphs"
text-anchor="middle" opacity="0" stroke-opacity="0">3</text>
<g class="stroked-text"><desc>3</desc>
<path d="M104.3517 74.5125
L105.1379 74.5125
" />
<path d="M105.1379 74.5125
L104.7145 74.9963
" />
<path d="M104.7145 74.9963
L104.8960 74.9963
" />
<path d="M104.8960 74.9963
L105.0169 75.0568
" />
<path d="M105.0169 75.0568
L105.0774 75.1173
" />
<path d="M105.0774 75.1173
L105.1379 75.2382
" />
<path d="M105.1379 75.2382
L105.1379 75.5406
" />
<path d="M105.1379 75.5406
L105.0774 75.6616
" />
<path d="M105.0774 75.6616
L105.0169 75.7221
" />
<path d="M105.0169 75.7221
L104.8960 75.7825
" />
<path d="M104.8960 75.7825
L104.5331 75.7825
" />
<path d="M104.5331 75.7825
L104.4122 75.7221
" />
<path d="M104.4122 75.7221
L104.3517 75.6616
" />
</g></g>
<g style="fill:none; 
stroke:#840000; stroke-width:0.1524; stroke-opacity:1; 
stroke-linecap:round; stroke-linejoin:round;">
<path d="M106.6800 78.7400
L102.8700 78.7400
" />
</g>
<g style="fill:none; 
stroke:#A90000; stroke-width:0.1524; stroke-opacity:1; 
stroke-linecap:round; stroke-linejoin:round;">
<text x="104.7750" y="78.4860"
textLength="1.4127" font-size="1.6933" lengthAdjust="spacingAndGlyphs"
text-anchor="middle" opacity="0" stroke-opacity="0">5</text>
<g class="stroked-text"><desc>5</desc>
<path d="M105.0774 77.0525
L104.4726 77.0525
" />
<path d="M104.4726 77.0525
L104.4122 77.6573
" />
<path d="M104.4122 77.6573
L104.4726 77.5968
" />
<path d="M104.4726 77.5968
L104.5936 77.5363
" />
<path d="M104.5936 77.5363
L104.8960 77.5363
" />
<path d="M104.8960 77.5363
L105.0169 77.5968
" />
<path d="M105.0169 77.5968
L105.0774 77.6573
" />
<path d="M105.0774 77.6573
L105.1379 77.7782
" />
<path d="M105.1379 77.7782
L105.1379 78.0806
" />
<path d="M105.1379 78.0806
L105.0774 78.2016
" />
<path d="M105.0774 78.2016
L105.0169 78.2621
" />
<path d="M105.0169 78.2621
L104.8960 78.3225
" />
<path d="M104.8960 78.3225
L104.5936 78.3225
" />
<path d="M104.5936 78.3225
L104.4726 78.2621
" />
<path d="M104.4726 78.2621
L104.4122 78.2016
" />
</g></g>
<g style="fill:none; 
stroke:#840000; stroke-width:0.1524; stroke-opacity:1; 
stroke-linecap:round; stroke-linejoin:round;">
<path d="M111.7600 73.6600
L115.5700 73.6600
" />
</g>
<g style="fill:none; 
stroke:#A90000; stroke-width:0.1524; stroke-opacity:1; 
stroke-linecap:round; stroke-linejoin:round;">
<text x="113.6650" y="73.4060"
textLength="1.4127" font-size="1.6933" lengthAdjust="spacingAndGlyphs"
text-anchor="middle" opacity="0" stroke-opacity="0">2</text>
<g class="stroked-text"><desc>2</desc>
<path d="M113.3022 72.0935
L113.3626 72.0330
" />
<path d="M113.3626 72.0330
L113.4836 71.9725
" />
<path d="M113.4836 71.9725
L113.7860 71.9725
" />
<path d="M113.7860 71.9725
L113.9069 72.0330
" />
<path d="M113.9069 72.0330
L113.9674 72.0935
" />
<path d="M113.9674 72.0935
L114.0279 72.2144
" />
<path d="M114.0279 72.2144
L114.0279 72.3354
" />
<path d="M114.0279 72.3354
L113.9674 72.5168
" />
<path d="M113.9674 72.5168
L113.2417 73.2425
" />
<path d="M113.2417 73.2425
L114.0279 73.2425
" />
</g></g>
<g style="fill:none; 
stroke:#840000; stroke-width:0.1524; stroke-opacity:1; 
stroke-linecap:round; stroke-linejoin:round;">
<path d="M111.7600 76.2000
L115.5700 76.2000
" />
</g>
<g style="fill:none; 
stroke:#A90000; stroke-width:0.1524; stroke-opacity:1; 
stroke-linecap:round; stroke-linejoin:round;">
<text x="113.6650" y="75.9460"
textLength="1.4127" font-size="1.6933" lengthAdjust="spacingAndGlyphs"
text-anchor="middle" opacity="0" stroke-opacity="0">4</text>
<g class="stroked-text"><desc>4</desc>
<path d="M113.9069 74.9359
L113.9069 75.7825
" />
<path d="M113.6045 74.4521
L113.3022 75.3592
" />
<path d="M113.3022 75.3592
L114.0883 75.3592
" />
</g></g>
<g style="fill:none; 
stroke:#840000; stroke-width:0.1524; stroke-opacity:1; 
stroke-linecap:round; stroke-linejoin:round;">
<path d="M111.7600 78.7400
L115.5700 78.7400
" />
</g>
<g style="fill:none; 
stroke:#A90000; stroke-width:0.1524; stroke-opacity:1; 
stroke-linecap:round; stroke-linejoin:round;">
<text x="113.6650" y="78.4860"
textLength="1.4127" font-size="1.6933" lengthAdjust="spacingAndGlyphs"
text-anchor="middle" opacity="0" stroke-opacity="0">6</text>
<g class="stroked-text"><desc>6</desc>
<path d="M113.9069 77.0525
L113.6650 77.0525
" />
<path d="M113.6650 77.0525
L113.5441 77.1130
" />
<path d="M113.5441 77.1130
L113.4836 77.1735
" />
<path d="M113.4836 77.1735
L113.3626 77.3549
" />
<path d="M113.3626 77.3549
L113.3022 77.5968
" />
<path d="M113.3022 77.5968
L113.3022 78.0806
" />
<path d="M113.3022 78.0806
L113.3626 78.2016
" />
<path d="M113.3626 78.2016
L113.4231 78.2621
" />
<path d="M113.4231 78.2621
L113.5441 78.3225
" />
<path d="M113.5441 78.3225
L113.7860 78.3225
" />
<path d="M113.7860 78.3225
L113.9069 78.2621
" />
<path d="M113.9069 78.2621
L113.9674 78.2016
" />
<path d="M113.9674 78.2016
L114.0279 78.0806
" />
<path d="M114.0279 78.0806
L114.0279 77.7782
" />
<path d="M114.0279 77.7782
L113.9674 77.6573
" />
<path d="M113.9674 77.6573
L113.9069 77.5968
" />
<path d="M113.9069 77.5968
L113.7860 77.5363
" />
<path d="M113.7860 77.5363
L113.5441 77.5363
" />
<path d="M113.5441 77.5363
L113.4231 77.5968
" />
<path d="M113.4231 77.5968
L113.3626 77.6573
" />
<path d="M113.3626 77.6573
L113.3022 77.7782
" />
</g></g>
<g style="fill:none; 
stroke:#006464; stroke-width:0.1524; stroke-opacity:1; 
stroke-linecap:round; stroke-linejoin:round;">
<text x="109.2200" y="67.9450"
textLength="2.3803" font-size="1.6933" lengthAdjust="spacingAndGlyphs"
text-anchor="middle" opacity="0" stroke-opacity="0">J1</text>
<g class="stroked-text"><desc>J1</desc>
<path d="M108.7967 66.6195
L108.7967 67.5267
" />
<path d="M108.7967 67.5267
L108.7362 67.7081
" />
<path d="M108.7362 67.7081
L108.6153 67.8291
" />
<path d="M108.6153 67.8291
L108.4338 67.8895
" />
<path d="M108.4338 67.8895
L108.3129 67.8895
" />
<path d="M110.0667 67.8895
L109.3410 67.8895
" />
<path d="M109.7038 67.8895
L109.7038 66.6195
" />
<path d="M109.7038 66.6195
L109.5829 66.8010
" />
<path d="M109.5829 66.8010
L109.4619 66.9219
" />
<path d="M109.4619 66.9219
L109.3410 66.9824
" />
</g><text x="109.2200" y="70.4850"
textLength="21.6718" font-size="1.6933" lengthAdjust="spacingAndGlyphs"
text-anchor="middle" opacity="0" stroke-opacity="0">Conn_02x03_Odd_Even</text>
<g class="stroked-text"><desc>Conn_02x03_Odd_Even</desc>
<path d="M99.5137 70.3086
L99.4533 70.3691
" />
<path d="M99.4533 70.3691
L99.2718 70.4295
" />
<path d="M99.2718 70.4295
L99.1509 70.4295
" />
<path d="M99.1509 70.4295
L98.9695 70.3691
" />
<path d="M98.9695 70.3691
L98.8485 70.2481
" />
<path d="M98.8485 70.2481
L98.7880 70.1271
" />
<path d="M98.7880 70.1271
L98.7276 69.8852
" />
<path d="M98.7276 69.8852
L98.7276 69.7038
" />
<path d="M98.7276 69.7038
L98.7880 69.4619
" />
<path d="M98.7880 69.4619
L98.8485 69.3410
" />
<path d="M98.8485 69.3410
L98.9695 69.2200
" />
<path d="M98.9695 69.2200
L99.1509 69.1595
" />
<path d="M99.1509 69.1595
L99.2718 69.1595
" />
<path d="M99.2718 69.1595
L99.4533 69.2200
" />
<path d="M99.4533 69.2200
L99.5137 69.2805
" />
<path d="M100.2395 70.4295
L100.1185 70.3691
" />
<path d="M100.1185 70.3691
L100.0580 70.3086
" />
<path d="M100.0580 70.3086
L99.9976 70.1876
" />
<path d="M99.9976 70.1876
L99.9976 69.8248
" />
<path d="M99.9976 69.8248
L100.0580 69.7038
" />
<path d="M100.0580 69.7038
L100.1185 69.6433
" />
<path d="M100.1185 69.6433
L100.2395 69.5829
" />
<path d="M100.2395 69.5829
L100.4209 69.5829
" />
<path d="M100.4209 69.5829
L100.5418 69.6433
" />
<path d="M100.5418 69.6433
L100.6023 69.7038
" />
<path d="M100.6023 69.7038
L100.6628 69.8248
" />
<path d="M100.6628 69.8248
L100.6628 70.1876
" />
<path d="M100.6628 70.1876
L100.6023 70.3086
" />
<path d="M100.6023 70.3086
L100.5418 70.3691
" />
<path d="M100.5418 70.3691
L100.4209 70.4295
" />
<path d="M100.4209 70.4295
L100.2395 70.4295
" />
<path d="M101.2070 69.5829
L101.2070 70.4295
" />
<path d="M101.2070 69.7038
L101.2675 69.6433
" />
<path d="M101.2675 69.6433
L101.3885 69.5829
" />
<path d="M101.3885 69.5829
L101.5699 69.5829
" />
<path d="M101.5699 69.5829
L101.6908 69.6433
" />
<path d="M101.6908 69.6433
L101.7513 69.7643
" />
<path d="M101.7513 69.7643
L101.7513 70.4295
" />
<path d="M102.3560 69.5829
L102.3560 70.4295
" />
<path d="M102.3560 69.7038
L102.4165 69.6433
" />
<path d="M102.4165 69.6433
L102.5375 69.5829
" />
<path d="M102.5375 69.5829
L102.7189 69.5829
" />
<path d="M102.7189 69.5829
L102.8398 69.6433
" />
<path d="M102.8398 69.6433
L102.9003 69.7643
" />
<path d="M102.9003 69.7643
L102.9003 70.4295
" />
<path d="M103.2027 70.5505
L104.1703 70.5505
" />
<path d="M104.7145 69.1595
L104.8355 69.1595
" />
<path d="M104.8355 69.1595
L104.9564 69.2200
" />
<path d="M104.9564 69.2200
L105.0169 69.2805
" />
<path d="M105.0169 69.2805
L105.0774 69.4014
" />
<path d="M105.0774 69.4014
L105.1379 69.6433
" />
<path d="M105.1379 69.6433
L105.1379 69.9457
" />
<path d="M105.1379 69.9457
L105.0774 70.1876
" />
<path d="M105.0774 70.1876
L105.0169 70.3086
" />
<path d="M105.0169 70.3086
L104.9564 70.3691
" />
<path d="M104.9564 70.3691
L104.8355 70.4295
" />
<path d="M104.8355 70.4295
L104.7145 70.4295
" />
<path d="M104.7145 70.4295
L104.5936 70.3691
" />
<path d="M104.5936 70.3691
L104.5331 70.3086
" />
<path d="M104.5331 70.3086
L104.4726 70.1876
" />
<path d="M104.4726 70.1876
L104.4122 69.9457
" />
<path d="M104.4122 69.9457
L104.4122 69.6433
" />
<path d="M104.4122 69.6433
L104.4726 69.4014
" />
<path d="M104.4726 69.4014
L104.5331 69.2805
" />
<path d="M104.5331 69.2805
L104.5936 69.2200
" />
<path d="M104.5936 69.2200
L104.7145 69.1595
" />
<path d="M105.6217 69.2805
L105.6821 69.2200
" />
<path d="M105.6821 69.2200
L105.8031 69.1595
" />
<path d="M105.8031 69.1595
L106.1055 69.1595
" />
<path d="M106.1055 69.1595
L106.2264 69.2200
" />
<path d="M106.2264 69.2200
L106.2869 69.2805
" />
<path d="M106.2869 69.2805
L106.3474 69.4014
" />
<path d="M106.3474 69.4014
L106.3474 69.5224
" />
<path d="M106.3474 69.5224
L106.2869 69.7038
" />
<path d="M106.2869 69.7038
L105.5612 70.4295
" />
<path d="M105.5612 70.4295
L106.3474 70.4295
" />
<path d="M106.7707 70.4295
L107.4359 69.5829
" />
<path d="M106.7707 69.5829
L107.4359 70.4295
" />
<path d="M108.1616 69.1595
L108.2826 69.1595
" />
<path d="M108.2826 69.1595
L108.4035 69.2200
" />
<path d="M108.4035 69.2200
L108.4640 69.2805
" />
<path d="M108.4640 69.2805
L108.5245 69.4014
" />
<path d="M108.5245 69.4014
L108.5850 69.6433
" />
<path d="M108.5850 69.6433
L108.5850 69.9457
" />
<path d="M108.5850 69.9457
L108.5245 70.1876
" />
<path d="M108.5245 70.1876
L108.4640 70.3086
" />
<path d="M108.4640 70.3086
L108.4035 70.3691
" />
<path d="M108.4035 70.3691
L108.2826 70.4295
" />
<path d="M108.2826 70.4295
L108.1616 70.4295
" />
<path d="M108.1616 70.4295
L108.0407 70.3691
" />
<path d="M108.0407 70.3691
L107.9802 70.3086
" />
<path d="M107.9802 70.3086
L107.9197 70.1876
" />
<path d="M107.9197 70.1876
L107.8593 69.9457
" />
<path d="M107.8593 69.9457
L107.8593 69.6433
" />
<path d="M107.8593 69.6433
L107.9197 69.4014
" />
<path d="M107.9197 69.4014
L107.9802 69.2805
" />
<path d="M107.9802 69.2805
L108.0407 69.2200
" />
<path d="M108.0407 69.2200
L108.1616 69.1595
" />
<path d="M109.0083 69.1595
L109.7945 69.1595
" />
<path d="M109.7945 69.1595
L109.3711 69.6433
" />
<path d="M109.3711 69.6433
L109.5526 69.6433
" />
<path d="M109.5526 69.6433
L109.6735 69.7038
" />
<path d="M109.6735 69.7038
L109.7340 69.7643
" />
<path d="M109.7340 69.7643
L109.7945 69.8852
" />
<path d="M109.7945 69.8852
L109.7945 70.1876
" />
<path d="M109.7945 70.1876
L109.7340 70.3086
" />
<path d="M109.7340 70.3086
L109.6735 70.3691
" />
<path d="M109.6735 70.3691
L109.5526 70.4295
" />
<path d="M109.5526 70.4295
L109.1897 70.4295
" />
<path d="M109.1897 70.4295
L109.0688 70.3691
" />
<path d="M109.0688 70.3691
L109.0083 70.3086
" />
<path d="M110.0364 70.5505
L111.0040 70.5505
" />
<path d="M111.5482 69.1595
L111.7901 69.1595
" />
<path d="M111.7901 69.1595
L111.9111 69.2200
" />
<path d="M111.9111 69.2200
L112.0320 69.3410
" />
<path d="M112.0320 69.3410
L112.0925 69.5829
" />
<path d="M112.0925 69.5829
L112.0925 70.0062
" />
<path d="M112.0925 70.0062
L112.0320 70.2481
" />
<path d="M112.0320 70.2481
L111.9111 70.3691
" />
<path d="M111.9111 70.3691
L111.7901 70.4295
" />
<path d="M111.7901 70.4295
L111.5482 70.4295
" />
<path d="M111.5482 70.4295
L111.4273 70.3691
" />
<path d="M111.4273 70.3691
L111.3063 70.2481
" />
<path d="M111.3063 70.2481
L111.2459 70.0062
" />
<path d="M111.2459 70.0062
L111.2459 69.5829
" />
<path d="M111.2459 69.5829
L111.3063 69.3410
" />
<path d="M111.3063 69.3410
L111.4273 69.2200
" />
<path d="M111.4273 69.2200
L111.5482 69.1595
" />
<path d="M113.1811 70.4295
L113.1811 69.1595
" />
<path d="M113.1811 70.3691
L113.0602 70.4295
" />
<path d="M113.0602 70.4295
L112.8183 70.4295
" />
<path d="M112.8183 70.4295
L112.6973 70.3691
" />
<path d="M112.6973 70.3691
L112.6368 70.3086
" />
<path d="M112.6368 70.3086
L112.5764 70.1876
" />
<path d="M112.5764 70.1876
L112.5764 69.8248
" />
<path d="M112.5764 69.8248
L112.6368 69.7038
" />
<path d="M112.6368 69.7038
L112.6973 69.6433
" />
<path d="M112.6973 69.6433
L112.8183 69.5829
" />
<path d="M112.8183 69.5829
L113.0602 69.5829
" />
<path d="M113.0602 69.5829
L113.1811 69.6433
" />
<path d="M114.3301 70.4295
L114.3301 69.1595
" />
<path d="M114.3301 70.3691
L114.2092 70.4295
" />
<path d="M114.2092 70.4295
L113.9673 70.4295
" />
<path d="M113.9673 70.4295
L113.8463 70.3691
" />
<path d="M113.8463 70.3691
L113.7858 70.3086
" />
<path d="M113.7858 70.3086
L113.7254 70.1876
" />
<path d="M113.7254 70.1876
L113.7254 69.8248
" />
<path d="M113.7254 69.8248
L113.7858 69.7038
" />
<path d="M113.7858 69.7038
L113.8463 69.6433
" />
<path d="M113.8463 69.6433
L113.9673 69.5829
" />
<path d="M113.9673 69.5829
L114.2092 69.5829
" />
<path d="M114.2092 69.5829
L114.3301 69.6433
" />
<path d="M114.6325 70.5505
L115.6001 70.5505
" />
<path d="M115.9024 69.7643
L116.3258 69.7643
" />
<path d="M116.5072 70.4295
L115.9024 70.4295
" />
<path d="M115.9024 70.4295
L115.9024 69.1595
" />
<path d="M115.9024 69.1595
L116.5072 69.1595
" />
<path d="M116.9305 69.5829
L117.2329 70.4295
" />
<path d="M117.2329 70.4295
L117.5352 69.5829
" />
<path d="M118.5028 70.3691
L118.3819 70.4295
" />
<path d="M118.3819 70.4295
L118.1400 70.4295
" />
<path d="M118.1400 70.4295
L118.0190 70.3691
" />
<path d="M118.0190 70.3691
L117.9586 70.2481
" />
<path d="M117.9586 70.2481
L117.9586 69.7643
" />
<path d="M117.9586 69.7643
L118.0190 69.6433
" />
<path d="M118.0190 69.6433
L118.1400 69.5829
" />
<path d="M118.1400 69.5829
L118.3819 69.5829
" />
<path d="M118.3819 69.5829
L118.5028 69.6433
" />
<path d="M118.5028 69.6433
L118.5633 69.7643
" />
<path d="M118.5633 69.7643
L118.5633 69.8852
" />
<path d="M118.5633 69.8852
L117.9586 70.0062
" />
<path d="M119.1076 69.5829
L119.1076 70.4295
" />
<path d="M119.1076 69.7038
L119.1681 69.6433
" />
<path d="M119.1681 69.6433
L119.2891 69.5829
" />
<path d="M119.2891 69.5829
L119.4705 69.5829
" />
<path d="M119.4705 69.5829
L119.5914 69.6433
" />
<path d="M119.5914 69.6433
L119.6519 69.7643
" />
<path d="M119.6519 69.7643
L119.6519 70.4295
" />
</g></g>
<g style="fill:#840000; fill-opacity:1.0000; 
stroke:#840000; stroke-width:0.1524; stroke-opacity:1; 
stroke-linecap:round; stroke-linejoin:round;">
<rect x="107.442000" y="59.944000" width="0.254000" height="4.572000" rx="0.000000" />
<rect x="110.490000" y="59.944000" width="0.254000" height="4.572000" rx="0.000000" />
<rect x="108.204000" y="60.706000" width="0.508000" height="3.048000" rx="0.000000" />
<rect x="111.252000" y="60.706000" width="0.508000" height="3.048000" rx="0.000000" />
<path style="fill:none; 
stroke:#840000; stroke-width:0.1524; stroke-opacity:1; 
stroke-linecap:round; stroke-linejoin:round;fill:none"
d="M 107.4420,62.2300
106.6800,62.2300
" /> 
<path style="fill:none; 
stroke:#840000; stroke-width:0.1524; stroke-opacity:1; 
stroke-linecap:round; stroke-linejoin:round;fill:none"
d="M 109.2200,62.2300
108.9660,62.2300
" /> 
<path style="fill:none; 
stroke:#840000; stroke-width:0.1524; stroke-opacity:1; 
stroke-linecap:round; stroke-linejoin:round;fill:none"
d="M 109.7280,62.2300
109.4740,62.2300
" /> 
<path style="fill:none; 
stroke:#840000; stroke-width:0.1524; stroke-opacity:1; 
stroke-linecap:round; stroke-linejoin:round;fill:none"
d="M 110.2360,62.2300
109.9820,62.2300
" /> 
<path style="fill:none; 
stroke:#840000; stroke-width:0.2540; stroke-opacity:1; 
stroke-linecap:round; stroke-linejoin:round;fill:none"
d="M 106.1720,61.4680
106.1720,60.4520
" /> 
<path style="fill:none; 
stroke:#840000; stroke-width:0.2540; stroke-opacity:1; 
stroke-linecap:round; stroke-linejoin:round;fill:none"
d="M 105.6640,60.9600
106.6800,60.9600
" /> 
</g>
<g style="fill:none; 
stroke:#840000; stroke-width:0.1524; stroke-opacity:1; 
stroke-linecap:round; stroke-linejoin:round;">
<path d="M106.6800 62.2300
L104.1400 62.2300
" />
<path d="M111.7600 62.2300
L114.3000 62.2300
" />
</g>
<g style="fill:none; 
stroke:#006464; stroke-width:0.1524; stroke-opacity:1; 
stroke-linecap:round; stroke-linejoin:round;">
<text x="108.6484" y="55.2449"
textLength="3.6503" font-size="1.6933" lengthAdjust="spacingAndGlyphs"
text-anchor="middle" opacity="0" stroke-opacity="0">BT1</text>
<g class="stroked-text"><desc>BT1</desc>
<path d="M107.6506 54.5242
L107.8320 54.5847
" />
<path d="M107.8320 54.5847
L107.8925 54.6451
" />
<path d="M107.8925 54.6451
L107.9529 54.7661
" />
<path d="M107.9529 54.7661
L107.9529 54.9475
" />
<path d="M107.9529 54.9475
L107.8925 55.0685
" />
<path d="M107.8925 55.0685
L107.8320 55.1290
" />
<path d="M107.8320 55.1290
L107.7110 55.1894
" />
<path d="M107.7110 55.1894
L107.2272 55.1894
" />
<path d="M107.2272 55.1894
L107.2272 53.9194
" />
<path d="M107.2272 53.9194
L107.6506 53.9194
" />
<path d="M107.6506 53.9194
L107.7715 53.9799
" />
<path d="M107.7715 53.9799
L107.8320 54.0404
" />
<path d="M107.8320 54.0404
L107.8925 54.1613
" />
<path d="M107.8925 54.1613
L107.8925 54.2823
" />
<path d="M107.8925 54.2823
L107.8320 54.4032
" />
<path d="M107.8320 54.4032
L107.7715 54.4637
" />
<path d="M107.7715 54.4637
L107.6506 54.5242
" />
<path d="M107.6506 54.5242
L107.2272 54.5242
" />
<path d="M108.3158 53.9194
L109.0415 53.9194
" />
<path d="M108.6787 55.1894
L108.6787 53.9194
" />
<path d="M110.1301 55.1894
L109.4044 55.1894
" />
<path d="M109.7672 55.1894
L109.7672 53.9194
" />
<path d="M109.7672 53.9194
L109.6463 54.1009
" />
<path d="M109.6463 54.1009
L109.5253 54.2218
" />
<path d="M109.5253 54.2218
L109.4044 54.2823
" />
</g><text x="108.6485" y="57.7849"
textLength="6.9160" font-size="1.6933" lengthAdjust="spacingAndGlyphs"
text-anchor="middle" opacity="0" stroke-opacity="0">Battery</text>
<g class="stroked-text"><desc>Battery</desc>
<path d="M106.0178 57.0642
L106.1992 57.1247
" />
<path d="M106.1992 57.1247
L106.2597 57.1851
" />
<path d="M106.2597 57.1851
L106.3201 57.3061
" />
<path d="M106.3201 57.3061
L106.3201 57.4875
" />
<path d="M106.3201 57.4875
L106.2597 57.6085
" />
<path d="M106.2597 57.6085
L106.1992 57.6690
" />
<path d="M106.1992 57.6690
L106.0782 57.7294
" />
<path d="M106.0782 57.7294
L105.5944 57.7294
" />
<path d="M105.5944 57.7294
L105.5944 56.4594
" />
<path d="M105.5944 56.4594
L106.0178 56.4594
" />
<path d="M106.0178 56.4594
L106.1387 56.5199
" />
<path d="M106.1387 56.5199
L106.1992 56.5804
" />
<path d="M106.1992 56.5804
L106.2597 56.7013
" />
<path d="M106.2597 56.7013
L106.2597 56.8223
" />
<path d="M106.2597 56.8223
L106.1992 56.9432
" />
<path d="M106.1992 56.9432
L106.1387 57.0037
" />
<path d="M106.1387 57.0037
L106.0178 57.0642
" />
<path d="M106.0178 57.0642
L105.5944 57.0642
" />
<path d="M107.4087 57.7294
L107.4087 57.0642
" />
<path d="M107.4087 57.0642
L107.3482 56.9432
" />
<path d="M107.3482 56.9432
L107.2273 56.8828
" />
<path d="M107.2273 56.8828
L106.9854 56.8828
" />
<path d="M106.9854 56.8828
L106.8644 56.9432
" />
<path d="M107.4087 57.6690
L107.2878 57.7294
" />
<path d="M107.2878 57.7294
L106.9854 57.7294
" />
<path d="M106.9854 57.7294
L106.8644 57.6690
" />
<path d="M106.8644 57.6690
L106.8040 57.5480
" />
<path d="M106.8040 57.5480
L106.8040 57.4270
" />
<path d="M106.8040 57.4270
L106.8644 57.3061
" />
<path d="M106.8644 57.3061
L106.9854 57.2456
" />
<path d="M106.9854 57.2456
L107.2878 57.2456
" />
<path d="M107.2878 57.2456
L107.4087 57.1851
" />
<path d="M107.8320 56.8828
L108.3158 56.8828
" />
<path d="M108.0134 56.4594
L108.0134 57.5480
" />
<path d="M108.0134 57.5480
L108.0739 57.6690
" />
<path d="M108.0739 57.6690
L108.1949 57.7294
" />
<path d="M108.1949 57.7294
L108.3158 57.7294
" />
<path d="M108.5577 56.8828
L109.0415 56.8828
" />
<path d="M108.7391 56.4594
L108.7391 57.5480
" />
<path d="M108.7391 57.5480
L108.7996 57.6690
" />
<path d="M108.7996 57.6690
L108.9206 57.7294
" />
<path d="M108.9206 57.7294
L109.0415 57.7294
" />
<path d="M109.9486 57.6690
L109.8277 57.7294
" />
<path d="M109.8277 57.7294
L109.5858 57.7294
" />
<path d="M109.5858 57.7294
L109.4648 57.6690
" />
<path d="M109.4648 57.6690
L109.4044 57.5480
" />
<path d="M109.4044 57.5480
L109.4044 57.0642
" />
<path d="M109.4044 57.0642
L109.4648 56.9432
" />
<path d="M109.4648 56.9432
L109.5858 56.8828
" />
<path d="M109.5858 56.8828
L109.8277 56.8828
" />
<path d="M109.8277 56.8828
L109.9486 56.9432
" />
<path d="M109.9486 56.9432
L110.0091 57.0642
" />
<path d="M110.0091 57.0642
L110.0091 57.1851
" />
<path d="M110.0091 57.1851
L109.4044 57.3061
" />
<path d="M110.5534 57.7294
L110.5534 56.8828
" />
<path d="M110.5534 57.1247
L110.6139 57.0037
" />
<path d="M110.6139 57.0037
L110.6744 56.9432
" />
<path d="M110.6744 56.9432
L110.7953 56.8828
" />
<path d="M110.7953 56.8828
L110.9163 56.8828
" />
<path d="M111.2187 56.8828
L111.5211 57.7294
" />
<path d="M111.8234 56.8828
L111.5211 57.7294
" />
<path d="M111.5211 57.7294
L111.4001 58.0318
" />
<path d="M111.4001 58.0318
L111.3396 58.0923
" />
<path d="M111.3396 58.0923
L111.2187 58.1528
" />
</g></g>
<g style="fill:none; 
stroke:#009600; stroke-width:0.1524; stroke-opacity:1; 
stroke-linecap:round; stroke-linejoin:round;">
<path d="M114.3000 73.6600
L115.5700 73.6600
" />
<path d="M104.1400 62.2300
L104.1400 73.6600
" />
<path d="M104.1400 73.6600
L102.8700 73.6600
" />
<path d="M114.3000 62.2300
L114.3000 73.6600
" />
</g>
<g style="fill:none; 
stroke:#000084; stroke-width:0.1524; stroke-opacity:1; 
stroke-linecap:round; stroke-linejoin:round;">
<path d="M102.2604 75.5904
L103.4796 76.8096
" />
<path d="M103.4796 75.5904
L102.2604 76.8096
" />
<path d="M102.2604 78.1304
L103.4796 79.3496
" />
<path d="M103.4796 78.1304
L102.2604 79.3496
" />
<path d="M114.9604 75.5904
L116.1796 76.8096
" />
<path d="M116.1796 75.5904
L114.9604 76.8096
" />
<path d="M114.9604 78.1304
L116.1796 79.3496
" />
<path d="M116.1796 78.1304
L114.9604 79.3496
" />
</g> 
</svg>
