G04 #@! TF.GenerationSoftware,KiCad,Pcbnew,9.0.7+1*
G04 #@! TF.CreationDate,2026-06-17T22:05:16+00:00*
G04 #@! TF.ProjectId,sao_coincell_adaptor,73616f5f-636f-4696-9e63-656c6c5f6164,rev?*
G04 #@! TF.SameCoordinates,Original*
G04 #@! TF.FileFunction,Legend,Bot*
G04 #@! TF.FilePolarity,Positive*
%FSLAX46Y46*%
G04 Gerber Fmt 4.6, Leading zero omitted, Abs format (unit mm)*
G04 Created by KiCad (PCBNEW 9.0.7+1) date 2026-06-17 22:05:16*
%MOMM*%
%LPD*%
G01*
G04 APERTURE LIST*
%ADD10C,0.150000*%
%ADD11C,0.120000*%
%ADD12R,1.700000X1.700000*%
%ADD13O,1.700000X1.700000*%
%ADD14C,3.600000*%
%ADD15C,5.600000*%
%ADD16R,2.000000X2.000000*%
%ADD17C,2.000000*%
G04 APERTURE END LIST*
D10*
X176947244Y-68414206D02*
X176804387Y-68461825D01*
X176804387Y-68461825D02*
X176756768Y-68509444D01*
X176756768Y-68509444D02*
X176709149Y-68604682D01*
X176709149Y-68604682D02*
X176709149Y-68747539D01*
X176709149Y-68747539D02*
X176756768Y-68842777D01*
X176756768Y-68842777D02*
X176804387Y-68890397D01*
X176804387Y-68890397D02*
X176899625Y-68938016D01*
X176899625Y-68938016D02*
X177280577Y-68938016D01*
X177280577Y-68938016D02*
X177280577Y-67938016D01*
X177280577Y-67938016D02*
X176947244Y-67938016D01*
X176947244Y-67938016D02*
X176852006Y-67985635D01*
X176852006Y-67985635D02*
X176804387Y-68033254D01*
X176804387Y-68033254D02*
X176756768Y-68128492D01*
X176756768Y-68128492D02*
X176756768Y-68223730D01*
X176756768Y-68223730D02*
X176804387Y-68318968D01*
X176804387Y-68318968D02*
X176852006Y-68366587D01*
X176852006Y-68366587D02*
X176947244Y-68414206D01*
X176947244Y-68414206D02*
X177280577Y-68414206D01*
X176423434Y-67938016D02*
X175852006Y-67938016D01*
X176137720Y-68938016D02*
X176137720Y-67938016D01*
X174994863Y-68938016D02*
X175566291Y-68938016D01*
X175280577Y-68938016D02*
X175280577Y-67938016D01*
X175280577Y-67938016D02*
X175375815Y-68080873D01*
X175375815Y-68080873D02*
X175471053Y-68176111D01*
X175471053Y-68176111D02*
X175566291Y-68223730D01*
D11*
X172761530Y-72183197D02*
X172761530Y-73183197D01*
X173261530Y-72683197D02*
X172261530Y-72683197D01*
X173761529Y-75783197D02*
G75*
G02*
X173761529Y-69583197I-11499999J3100000D01*
G01*
%LPC*%
D12*
X160276172Y-87850337D03*
D13*
X160276172Y-90390337D03*
X162816172Y-87850337D03*
X162816172Y-90390337D03*
X165356172Y-87850337D03*
X165356172Y-90390337D03*
D14*
X148997972Y-61571649D03*
D15*
X148997972Y-61571649D03*
D16*
X174661530Y-72683197D03*
D17*
X153861530Y-72683197D03*
%LPD*%
M02*
