G04 #@! TF.GenerationSoftware,KiCad,Pcbnew,9.0.7+1*
G04 #@! TF.CreationDate,2026-06-17T22:05:16+00:00*
G04 #@! TF.ProjectId,sao_coincell_adaptor,73616f5f-636f-4696-9e63-656c6c5f6164,rev?*
G04 #@! TF.SameCoordinates,Original*
G04 #@! TF.FileFunction,Legend,Top*
G04 #@! TF.FilePolarity,Positive*
%FSLAX46Y46*%
G04 Gerber Fmt 4.6, Leading zero omitted, Abs format (unit mm)*
G04 Created by KiCad (PCBNEW 9.0.7+1) date 2026-06-17 22:05:16*
%MOMM*%
%LPD*%
G01*
G04 APERTURE LIST*
%ADD10C,0.150000*%
%ADD11C,0.120000*%
%ADD12R,1.700000X1.700000*%
%ADD13O,1.700000X1.700000*%
%ADD14C,3.600000*%
%ADD15C,5.600000*%
%ADD16R,2.000000X2.000000*%
%ADD17C,2.000000*%
G04 APERTURE END LIST*
D10*
X156960991Y-89453670D02*
X157675276Y-89453670D01*
X157675276Y-89453670D02*
X157818133Y-89501289D01*
X157818133Y-89501289D02*
X157913372Y-89596527D01*
X157913372Y-89596527D02*
X157960991Y-89739384D01*
X157960991Y-89739384D02*
X157960991Y-89834622D01*
X157960991Y-88453670D02*
X157960991Y-89025098D01*
X157960991Y-88739384D02*
X156960991Y-88739384D01*
X156960991Y-88739384D02*
X157103848Y-88834622D01*
X157103848Y-88834622D02*
X157199086Y-88929860D01*
X157199086Y-88929860D02*
X157246705Y-89025098D01*
D11*
X158946172Y-86520337D02*
X160276172Y-86520337D01*
X158946172Y-87850337D02*
X158946172Y-86520337D01*
X158946172Y-89120337D02*
X161546172Y-89120337D01*
X158946172Y-91720337D02*
X158946172Y-89120337D01*
X158946172Y-91720337D02*
X166686172Y-91720337D01*
X161546172Y-86520337D02*
X166686172Y-86520337D01*
X161546172Y-89120337D02*
X161546172Y-86520337D01*
X166686172Y-91720337D02*
X166686172Y-86520337D01*
%LPC*%
D12*
X160276172Y-87850337D03*
D13*
X160276172Y-90390337D03*
X162816172Y-87850337D03*
X162816172Y-90390337D03*
X165356172Y-87850337D03*
X165356172Y-90390337D03*
D14*
X148997972Y-61571649D03*
D15*
X148997972Y-61571649D03*
D16*
X174661530Y-72683197D03*
D17*
X153861530Y-72683197D03*
%LPD*%
M02*
